<?xml version="1.0" encoding="UTF-8" standalone="no"?>
<!-- Created with Inkscape (http://www.inkscape.org/) -->
<svg
   xmlns:dc="http://purl.org/dc/elements/1.1/"
   xmlns:cc="http://web.resource.org/cc/"
   xmlns:rdf="http://www.w3.org/1999/02/22-rdf-syntax-ns#"
   xmlns:svg="http://www.w3.org/2000/svg"
   xmlns="http://www.w3.org/2000/svg"
   xmlns:xlink="http://www.w3.org/1999/xlink"
   xmlns:sodipodi="http://sodipodi.sourceforge.net/DTD/sodipodi-0.dtd"
   xmlns:inkscape="http://www.inkscape.org/namespaces/inkscape"
   width="128"
   height="128"
   id="svg2811"
   sodipodi:version="0.32"
   inkscape:version="0.45.1"
   version="1.0"
   sodipodi:docname="document-open.svgz"
   inkscape:output_extension="org.inkscape.output.svgz.inkscape"
   inkscape:export-filename="/home/david/document-open.png"
   inkscape:export-xdpi="33.75"
   inkscape:export-ydpi="33.75"
   sodipodi:docbase="/home/david">
  <defs
     id="defs2813">
    <linearGradient
       gradientTransform="matrix(1.0033876,0,0,1,1.7561237,8)"
       y2="20.0005"
       x2="72.000504"
       y1="96"
       x1="72.000504"
       gradientUnits="userSpaceOnUse"
       id="linearGradient3341">
      <stop
         id="stop3343"
         style="stop-color:#d3d3d3;stop-opacity:1;"
         offset="0" />
      <stop
         id="stop3345"
         style="stop-color:#ffffff;stop-opacity:1;"
         offset="0.59170002" />
      <stop
         id="stop3347"
         style="stop-color:#ededed;stop-opacity:1;"
         offset="1" />
    </linearGradient>
    <linearGradient
       gradientTransform="matrix(1.0033808,0,0,1,-8.2378002,8)"
       y2="20.043535"
       x2="122.39215"
       y1="96.721588"
       x1="122.74438"
       gradientUnits="userSpaceOnUse"
       id="linearGradient3067">
      <stop
         id="stop3069"
         style="stop-color:#88c4ff;stop-opacity:1;"
         offset="0" />
      <stop
         offset="0.13053299"
         style="stop-color:#b3d9ff;stop-opacity:1;"
         id="stop3077" />
      <stop
         id="stop3071"
         style="stop-color:#71A8F5"
         offset="0.72006166" />
      <stop
         id="stop3073"
         style="stop-color:#508ed9;stop-opacity:1;"
         offset="1" />
    </linearGradient>
    <linearGradient
       id="linearGradient2822">
      <stop
         style="stop-color:#ffffff;stop-opacity:1;"
         offset="0"
         id="stop2824" />
      <stop
         style="stop-color:#ffffff;stop-opacity:0;"
         offset="1"
         id="stop2826" />
    </linearGradient>
    <linearGradient
       id="XMLID_9_"
       gradientUnits="userSpaceOnUse"
       x1="71.999496"
       y1="14.2578"
       x2="71.999496"
       y2="19.9583"
       gradientTransform="matrix(1.0033404,0,0,1,-8.2374684,43)">
      <stop
         offset="0.25"
         style="stop-color:#71a8f5;stop-opacity:0;"
         id="stop46" />
      <stop
         offset="1"
         style="stop-color:#0057ae;stop-opacity:1"
         id="stop48" />
    </linearGradient>
    <linearGradient
       id="XMLID_8_"
       gradientUnits="userSpaceOnUse"
       x1="72.000504"
       y1="96"
       x2="72.000504"
       y2="20.0005"
       gradientTransform="matrix(1.0033876,0,0,1,1.7561237,8)">
      <stop
         offset="0"
         style="stop-color:#cfe7ff;stop-opacity:1;"
         id="stop35" />
      <stop
         offset="0.5917"
         style="stop-color:#71A8F5"
         id="stop37" />
      <stop
         offset="1"
         style="stop-color:#2C72C7"
         id="stop39" />
    </linearGradient>
    <filter
       inkscape:collect="always"
       x="-0.025599999"
       width="1.0512"
       y="-0.384"
       height="1.768"
       id="filter2807">
      <feGaussianBlur
         inkscape:collect="always"
         stdDeviation="1.28"
         id="feGaussianBlur2809" />
    </filter>
    <linearGradient
       id="XMLID_6_"
       gradientUnits="userSpaceOnUse"
       x1="72.000504"
       y1="96"
       x2="72.000504"
       y2="0.00048828119"
       gradientTransform="translate(-7.999995,19)">
      <stop
         offset="0"
         style="stop-color:#00479E"
         id="stop7" />
      <stop
         offset="0.0769"
         style="stop-color:#2C72C7"
         id="stop9" />
      <stop
         offset="0.58579999"
         style="stop-color:#6ea1df;stop-opacity:1;"
         id="stop11" />
      <stop
         offset="0.96450001"
         style="stop-color:#adcbee;stop-opacity:1;"
         id="stop13" />
    </linearGradient>
    <linearGradient
       inkscape:collect="always"
       xlink:href="#linearGradient2822"
       id="linearGradient2828"
       x1="22.413761"
       y1="28.5"
       x2="22.413761"
       y2="34.472866"
       gradientUnits="userSpaceOnUse"
       gradientTransform="translate(10,0)" />
    <linearGradient
       inkscape:collect="always"
       xlink:href="#XMLID_8_"
       id="linearGradient2838"
       gradientUnits="userSpaceOnUse"
       gradientTransform="matrix(1.0033876,0,0,0.6901954,-8.2438763,48.741242)"
       x1="72.000504"
       y1="96"
       x2="72.000504"
       y2="20.0005" />
    <clipPath
       clipPathUnits="userSpaceOnUse"
       id="clipPath2844">
      <path
         style="fill:#ff00bf"
         d="M 133.86613,100.978 C 133.79288,102.369 132.59585,103.5 131.19913,103.5 L 16.812952,103.5 C 15.415236,103.5 14.2192,102.368 14.145947,100.979 C 14.145947,100.979 10.508666,30.967 10.508666,30.957 C 10.461513,30.301 10.673223,29.685 11.105684,29.22 C 11.539144,28.756 12.140172,28.501 12.799403,28.501 L 135.21268,28.501 C 135.8719,28.501 136.47293,28.756 136.90339,29.219 C 137.33384,29.682 137.54254,30.298 137.49137,30.966 L 133.86613,100.978 z "
         id="path2846" />
    </clipPath>
    <filter
       inkscape:collect="always"
       x="-0.012357198"
       width="1.0247144"
       y="-0.41513768"
       height="1.8302754"
       id="filter2848">
      <feGaussianBlur
         inkscape:collect="always"
         stdDeviation="0.65388509"
         id="feGaussianBlur2850" />
    </filter>
    <linearGradient
       inkscape:collect="always"
       xlink:href="#linearGradient3067"
       id="linearGradient3109"
       gradientUnits="userSpaceOnUse"
       gradientTransform="matrix(1.0033808,0,0,0.6789298,-8.2378,49.822742)"
       x1="122.74438"
       y1="96.721588"
       x2="122.74438"
       y2="20" />
    <filter
       id="filter2770"
       inkscape:collect="always">
      <feGaussianBlur
         id="feGaussianBlur2772"
         stdDeviation="2.0786429"
         inkscape:collect="always" />
    </filter>
    <linearGradient
       gradientUnits="userSpaceOnUse"
       y2="99.254974"
       x2="91.228737"
       y1="106.41443"
       x1="98.617439"
       id="linearGradient10213"
       xlink:href="#linearGradient10207"
       inkscape:collect="always" />
    <radialGradient
       r="139.55859"
       cy="112.3047"
       cx="102"
       gradientTransform="matrix(1,0,0,0.9996653,2e-6,3.0160848e-3)"
       gradientUnits="userSpaceOnUse"
       id="radialGradient9437"
       xlink:href="#linearGradient3341"
       inkscape:collect="always" />
    <clipPath
       id="clipPath7084"
       clipPathUnits="userSpaceOnUse">
      <path
         id="path7086"
         d="M 72,88 L 40,120 L 32,120 L 32,80 L 72,80 L 72,88 z"
         style="fill:#000000;fill-opacity:1;fill-rule:evenodd;stroke:none;stroke-width:1px;stroke-linecap:butt;stroke-linejoin:miter;stroke-opacity:1" />
    </clipPath>
    <filter
       id="filter6697"
       height="1.3839999"
       y="-0.19199999"
       width="1.3839999"
       x="-0.19200002"
       inkscape:collect="always">
      <feGaussianBlur
         id="feGaussianBlur6699"
         stdDeviation="1.9447689"
         inkscape:collect="always" />
    </filter>
    <radialGradient
       gradientUnits="userSpaceOnUse"
       r="139.55859"
       cy="112.3047"
       cx="102"
       id="radialGradient2348">
      <stop
         id="stop41"
         style="stop-color:#b7b8b9;stop-opacity:1;"
         offset="0" />
      <stop
         id="stop47"
         style="stop-color:#ECECEC"
         offset="0.18851049" />
      <stop
         id="stop49"
         style="stop-color:#FAFAFA"
         offset="0.25718147" />
      <stop
         id="stop51"
         style="stop-color:#FFFFFF"
         offset="0.30111277" />
      <stop
         id="stop53"
         style="stop-color:#FAFAFA"
         offset="0.5313" />
      <stop
         id="stop55"
         style="stop-color:#EBECEC"
         offset="0.8449" />
      <stop
         id="stop57"
         style="stop-color:#E1E2E3"
         offset="1" />
    </radialGradient>
    <linearGradient
       y2="96.000198"
       x2="88.000198"
       y1="104"
       x1="96"
       gradientUnits="userSpaceOnUse"
       id="XMLID_12_">
      <stop
         id="stop83"
         style="stop-color:#888A85"
         offset="0" />
      <stop
         id="stop85"
         style="stop-color:#8C8E89"
         offset="0.0072" />
      <stop
         id="stop87"
         style="stop-color:#ABACA9"
         offset="0.0673" />
      <stop
         id="stop89"
         style="stop-color:#C5C6C4"
         offset="0.1347" />
      <stop
         id="stop91"
         style="stop-color:#DBDBDA"
         offset="0.2652576" />
      <stop
         id="stop93"
         style="stop-color:#EBEBEB"
         offset="0.37646064" />
      <stop
         id="stop95"
         style="stop-color:#F7F7F6"
         offset="0.48740286" />
      <stop
         id="stop97"
         style="stop-color:#FDFDFD"
         offset="0.6324091" />
      <stop
         id="stop99"
         style="stop-color:#FFFFFF"
         offset="1" />
    </linearGradient>
    <linearGradient
       id="linearGradient10207">
      <stop
         id="stop10209"
         offset="0"
         style="stop-color:#a2a2a2;stop-opacity:1;" />
      <stop
         id="stop10211"
         offset="1"
         style="stop-color:#ffffff;stop-opacity:1;" />
    </linearGradient>
  </defs>
  <sodipodi:namedview
     id="base"
     pagecolor="#ffffff"
     bordercolor="#666666"
     borderopacity="1.0"
     inkscape:pageopacity="0.0"
     inkscape:pageshadow="2"
     inkscape:zoom="1"
     inkscape:cx="64"
     inkscape:cy="64"
     inkscape:document-units="px"
     inkscape:current-layer="layer1"
     inkscape:window-width="748"
     inkscape:window-height="697"
     inkscape:window-x="29"
     inkscape:window-y="15"
     showborder="false"
     inkscape:showpageshadow="false"
     showgrid="false"
     height="128px"
     width="128px"
     gridempspacing="6" />
  <metadata
     id="metadata2816">
    <rdf:RDF>
      <cc:Work
         rdf:about="">
        <dc:format>image/svg+xml</dc:format>
        <dc:type
           rdf:resource="http://purl.org/dc/dcmitype/StillImage" />
      </cc:Work>
    </rdf:RDF>
  </metadata>
  <g
     inkscape:label="Livello 1"
     inkscape:groupmode="layer"
     id="layer1">
    <path
       d="M 117.983,30 C 117.992,28.35 116.64999,27 114.99999,27 L 44.961007,27 L 38.375006,20.414 C 37.597005,19.636 36.061006,19 34.961,19 L 13.999998,19 C 11.799996,19 9.999999,20.8 9.999999,23 L 9.999999,30 C 9.999999,30 10.999999,115 7,115 L 121,115 C 116.99999,115 117.983,30 117.983,30 z "
       id="path15"
       style="fill:url(#XMLID_6_)" />
    <g
       id="g17"
       style="opacity:0.6;filter:url(#filter2807)"
       transform="matrix(1.0033404,0,0,1,-8.2374684,19)">
      <path
         d="M 132,96 C 132,98.2 128.4,100 124,100 L 20,100 C 15.6,100 12,98.2 12,96 C 12,93.8 15.6,92 20,92 L 124,92 C 128.4,92 132,93.8 132,96 z "
         id="path19" />
    </g>
    <path
       d="M 10.580094,62 C 10.551086,57.609 10.516087,31.392 10.500078,30 L 10.500078,23 C 10.500078,21.07 12.07033,19.5 14.000627,19.5 L 34.964921,19.5 C 35.937077,19.5 37.339294,20.081 38.026407,20.768 L 44.759457,27.5 L 115.01648,27.5 C 115.68059,27.5 116.30469,27.76 116.77576,28.233 C 117.24683,28.706 117.50487,29.333 117.50087,29.997 C 117.50087,29.997 117.57288,29.925 117.60989,29.888 C 117.48787,30.495 117.47487,32.062 117.44687,36.161 L 117.43687,62 L 117.92894,62 C 117.95994,56.468 117.99995,30 117.99995,30 C 118.00896,28.35 116.66674,27 115.01648,27 L 44.966498,27 L 38.379463,20.414 C 37.60134,19.636 36.065099,19 34.964921,19 L 14.000627,19 C 11.80028,19 10,20.8 10,23 L 10,30 C 10,30 10.041009,56.468 10.073018,62 L 10.580094,62 z "
       id="path32"
       style="fill:#5293ee;fill-opacity:1"
       sodipodi:nodetypes="ccccccccsccccccccccccccc" />
    <g
       id="g2365"
       inkscape:label="Livello 1"
       transform="matrix(0.7388629,0,0,0.7517057,16.712774,6.8694968)">
      <path
         transform="matrix(1.0235606,0,0,1.0089383,-1.5078762,-7.2052827e-2)"
         sodipodi:nodetypes="csccscccc"
         id="path7865"
         d="M 16,8 L 16,120 C 16,120 79.15625,120 79.15625,120 L 79.1875,120 C 79.187503,120 91.09375,110.09375 96.59375,104.59375 C 102.09375,99.09375 112,87.1875 112,87.1875 L 112,87.15625 L 112,8 L 16,8 z "
         style="opacity:0.5;fill:#000000;fill-opacity:1;filter:url(#filter2770)" />
      <path
         sodipodi:nodetypes="cccccc"
         id="path34"
         d="M 16.000001,8 L 16,120 C 16,120 79.146418,120 79.146418,120 L 112,87.14642 L 112,8 L 16.000001,8 z "
         style="fill:#ffffff;fill-opacity:1" />
      <path
         sodipodi:nodetypes="ccccccccccc"
         id="path59"
         d="M 18.000002,9.0000034 C 17.449002,9.0000034 17.000002,9.4488534 17.000002,9.9996684 L 17.000002,117.96352 C 17.000002,118.51533 17.449002,118.96318 18.000002,118.96318 L 77.171999,118.96318 C 77.434999,118.96318 79.934679,119.08131 80.12068,118.89438 L 110.707,88.094202 C 110.894,87.907264 111,85.40942 111,85.146508 L 111,9.9996684 C 111,9.4488534 110.552,9.0000034 110,9.0000034 L 18.000002,9.0000034 z "
         style="fill:url(#radialGradient9437);fill-opacity:1" />
      <path
         transform="translate(40,0)"
         clip-path="url(#clipPath7084)"
         sodipodi:nodetypes="cccc"
         style="opacity:0.4;fill:#000000;fill-opacity:1;filter:url(#filter6697)"
         id="path5540"
         d="M 41.879531,115.98249 C 41.879531,115.98249 66.18914,91.672876 66.18914,91.672876 C 66.18914,91.672876 56.836,94.586 46.586,94.586 C 46.586,104.836 41.879531,115.98249 41.879531,115.98249 z " />
      <path
         sodipodi:nodetypes="csccc"
         d="M 79.172,120 C 79.172,120 91.086,110.086 96.586,104.586 C 102.086,99.086 112,87.172 112,87.172 C 112,87.172 98.25,96 88,96 C 88,106.25 79.172,120 79.172,120 z "
         id="path14523"
         style="fill:url(#linearGradient10213);fill-opacity:1" />
    </g>
    <path
       d="M 124.36598,112.96593 C 124.27969,114.0848 122.85389,115 121.19831,115 L 6.812906,115 C 5.157329,115 3.731522,114.0848 3.644228,112.96593 L 0.007982,65.432696 C -0.112423,64.315856 1.143808,63.401338 2.799384,63.401338 L 125.21183,63.401338 C 126.86741,63.401338 128.11762,64.315177 127.9912,65.432017 L 124.36598,112.96593 z "
       id="path30"
       style="opacity:0.9;fill:url(#linearGradient3109);fill-opacity:1" />
    <path
       d="M 9.8848616,57 C 9.8938916,58.75 9.9029216,60.755 9.9109516,63 L 118.09511,63 C 118.10414,60.755 118.11317,58.75 118.1212,57 L 9.8848616,57 z "
       id="path50"
       style="opacity:0.5;fill:url(#XMLID_9_)" />
    <path
       style="fill:url(#linearGradient2828);fill-opacity:1;filter:url(#filter2848)"
       d="M 12.8125,28.5 C 12.153269,28.5 11.52721,28.754751 11.09375,29.21875 C 10.661289,29.68375 10.452847,30.312749 10.5,30.96875 C 10.5,30.968937 10.559992,32.232788 10.5625,32.28125 C 10.647737,31.886257 10.815287,31.518165 11.09375,31.21875 C 11.52721,30.754751 12.153269,30.5 12.8125,30.5 L 135.21875,30.5 C 135.87797,30.500001 136.47579,30.75575 136.90625,31.21875 C 137.18342,31.516877 137.35439,31.883216 137.4375,32.28125 L 137.5,30.96875 C 137.55117,30.30075 137.3367,29.68175 136.90625,29.21875 C 136.47579,28.75575 135.87797,28.500001 135.21875,28.5 L 12.8125,28.5 z "
       id="path2788"
       clip-path="url(#clipPath2844)"
       transform="translate(-10,35.257525)" />
    <path
       style="fill:url(#linearGradient2838)"
       id="path2836"
       d="M 125.21268,62.545151 L 2.799403,62.545151 C 1.143815,62.545151 -0.1124237,63.474843 0.007982,64.610215 L 3.645263,112.93218 C 3.731547,114.06961 5.157364,115 6.812952,115 L 121.19913,115 C 122.85472,115 124.28053,114.06961 124.36682,112.93218 L 127.99106,64.609525 C 128.11849,63.474153 126.86827,62.545151 125.21268,62.545151 z M 123.86613,112.91423 C 123.79288,113.8743 122.59585,114.65491 121.19913,114.65491 L 6.812952,114.65491 C 5.415236,114.65491 4.2192,113.8736 4.145947,112.91492 C 4.145947,112.91492 0.508666,64.59296 0.508666,64.586058 C 0.461513,64.13329 0.673223,63.708129 1.105684,63.387189 C 1.539144,63.066939 2.140172,63.890939 2.799403,63.890939 L 125.21268,63.890939 C 125.8719,63.890939 126.47293,63.066939 126.90339,63.386498 C 127.33384,63.706059 127.54254,64.131219 127.49137,64.59227 L 123.86613,112.91423 z "
       sodipodi:nodetypes="cccccccccccccssccscc" />
  </g>
</svg>
