<?xml version="1.0" encoding="UTF-8" standalone="no"?>
<!-- Generator: Adobe Illustrator 12.0.0, SVG Export Plug-In . SVG Version: 6.00 Build 51448)  -->

<svg
   xmlns:ns="http://ns.adobe.com/SaveForWeb/1.0/"
   xmlns:dc="http://purl.org/dc/elements/1.1/"
   xmlns:cc="http://creativecommons.org/ns#"
   xmlns:rdf="http://www.w3.org/1999/02/22-rdf-syntax-ns#"
   xmlns:svg="http://www.w3.org/2000/svg"
   xmlns="http://www.w3.org/2000/svg"
   xmlns:xlink="http://www.w3.org/1999/xlink"
   xmlns:sodipodi="http://sodipodi.sourceforge.net/DTD/sodipodi-0.dtd"
   xmlns:inkscape="http://www.inkscape.org/namespaces/inkscape"
   version="1.1"
   id="Layer_1"
   width="128"
   height="128"
   viewBox="0 0 128 128"
   overflow="visible"
   enable-background="new 0 0 128 128"
   xml:space="preserve"
   sodipodi:version="0.32"
   inkscape:version="0.47 r22583"
   sodipodi:docname="document-new_modx.svg"
   inkscape:output_extension="org.inkscape.output.svgz.inkscape"
   inkscape:export-filename="/Users/david/Desktop/sandbox/document-new2.png"
   inkscape:export-xdpi="22.5"
   inkscape:export-ydpi="22.5"><defs
   id="defs105"><inkscape:perspective
     sodipodi:type="inkscape:persp3d"
     inkscape:vp_x="0 : 64 : 1"
     inkscape:vp_y="0 : 1000 : 0"
     inkscape:vp_z="128 : 64 : 1"
     inkscape:persp3d-origin="64 : 42.666667 : 1"
     id="perspective106" /><filter
     inkscape:collect="always"
     id="filter5943"><feGaussianBlur
       inkscape:collect="always"
       stdDeviation="1.04"
       id="feGaussianBlur5945" /></filter><linearGradient
     id="linearGradient6740"><stop
       style="stop-color:#004d00;stop-opacity:0;"
       offset="0"
       id="stop6742" /><stop
       id="stop6748"
       offset="0.5"
       style="stop-color:#004d00;stop-opacity:1;" /><stop
       style="stop-color:#004d00;stop-opacity:0;"
       offset="1"
       id="stop6744" /></linearGradient><linearGradient
     inkscape:collect="always"
     xlink:href="#linearGradient6740"
     id="linearGradient6930"
     gradientUnits="userSpaceOnUse"
     gradientTransform="translate(20.000035,-56.000003)"
     x1="102"
     y1="118"
     x2="102"
     y2="65.932846" /><linearGradient
     gradientTransform="matrix(0,1,-1,0,-39.9985,140.0029)"
     y2="-383.9975"
     x2="-23.516129"
     y1="-383.9971"
     x1="-84.002403"
     gradientUnits="userSpaceOnUse"
     id="linearGradient3711"><stop
       id="stop3713"
       style="stop-color:white;stop-opacity:1;"
       offset="0" /><stop
       id="stop3715"
       style="stop-color:white;stop-opacity:0;"
       offset="1" /></linearGradient><linearGradient
     inkscape:collect="always"
     xlink:href="#linearGradient3711"
     id="linearGradient8927"
     gradientUnits="userSpaceOnUse"
     gradientTransform="matrix(0,0.7388168,-0.7388168,0,-1.5226652,63.255682)"
     x1="-80.00296"
     y1="-131.93112"
     x2="-45.096584"
     y2="-131.93112" /><filter
     inkscape:collect="always"
     id="filter7317"><feGaussianBlur
       inkscape:collect="always"
       stdDeviation="2.8805897"
       id="feGaussianBlur7319" /></filter><clipPath
     clipPathUnits="userSpaceOnUse"
     id="clipPath5163"><circle
       sodipodi:ry="36"
       sodipodi:rx="36"
       sodipodi:cy="92"
       sodipodi:cx="343.99899"
       style="fill:url(#linearGradient5167);fill-opacity:1"
       r="36"
       rx="8.0010004"
       cx="343.99899"
       cy="92"
       ry="8.0010004"
       id="circle5165" /></clipPath><linearGradient
     id="linearGradient4296"><stop
       id="stop4298"
       offset="0"
       style="stop-color:#00ff00;stop-opacity:1" /><stop
       id="stop4300"
       offset="1"
       style="stop-color:#006500;stop-opacity:1" /></linearGradient><linearGradient
     inkscape:collect="always"
     xlink:href="#linearGradient4296"
     id="linearGradient4272"
     gradientUnits="userSpaceOnUse"
     x1="328.12448"
     y1="120.81158"
     x2="336.98077"
     y2="87.759453" /><linearGradient
     gradientTransform="matrix(0,1,-1,0,-39.9985,140.0029)"
     y2="-383.9971"
     x2="-12.0029"
     y1="-383.9971"
     x1="-84.002403"
     gradientUnits="userSpaceOnUse"
     id="linearGradient4770"><stop
       id="stop4772"
       style="stop-color:#e5ff00;stop-opacity:1"
       offset="0" /><stop
       id="stop4774"
       style="stop-color:#bff500;stop-opacity:0;"
       offset="1" /></linearGradient><radialGradient
     inkscape:collect="always"
     xlink:href="#linearGradient4770"
     id="radialGradient8920"
     gradientUnits="userSpaceOnUse"
     cx="343.99899"
     cy="92"
     fx="343.99899"
     fy="92"
     r="36" /><linearGradient
     gradientTransform="matrix(0,1,-1,0,-39.9985,140.0029)"
     y2="-383.9971"
     x2="-12.0029"
     y1="-383.9971"
     x1="-84.002403"
     gradientUnits="userSpaceOnUse"
     id="linearGradient5958"><stop
       id="stop5960"
       style="stop-color:#008c00;stop-opacity:1"
       offset="0" /><stop
       id="stop5962"
       style="stop-color:#00bf00;stop-opacity:1"
       offset="1" /></linearGradient><linearGradient
     inkscape:collect="always"
     xlink:href="#linearGradient5958"
     id="linearGradient8916"
     gradientUnits="userSpaceOnUse"
     gradientTransform="matrix(0,1,-1,0,-39.9985,140.0029)"
     x1="-86.120354"
     y1="-381.09921"
     x2="-56.357521"
     y2="-373.1243" /><filter
     inkscape:collect="always"
     id="filter4292"><feGaussianBlur
       inkscape:collect="always"
       stdDeviation="2.1604423"
       id="feGaussianBlur4294" /></filter><linearGradient
     y2="0"
     x2="28"
     y1="57.5"
     x1="28"
     gradientUnits="userSpaceOnUse"
     id="linearGradient18668">
			<stop
   id="stop18670"
   style="stop-color:#fffccf;stop-opacity:1;"
   offset="0" />
			<stop
   id="stop18672"
   style="stop-color:white;stop-opacity:0;"
   offset="1" />
		</linearGradient><linearGradient
     id="XMLID_2_"
     gradientUnits="userSpaceOnUse"
     x1="28"
     y1="57.5"
     x2="28"
     y2="0">
			<stop
   offset="0"
   style="stop-color:#FFEA00"
   id="stop12" />
			<stop
   offset="1"
   style="stop-color:#FFCC00"
   id="stop14" />
		</linearGradient><linearGradient
     inkscape:collect="always"
     xlink:href="#XMLID_9_"
     id="linearGradient2291"
     gradientUnits="userSpaceOnUse"
     x1="94.3438"
     y1="102.3447"
     x2="86.5356"
     y2="94.5366" /><linearGradient
     inkscape:collect="always"
     xlink:href="#XMLID_10_"
     id="linearGradient2293"
     gradientUnits="userSpaceOnUse"
     x1="95"
     y1="103"
     x2="86.5865"
     y2="94.5865" /><linearGradient
     inkscape:collect="always"
     xlink:href="#XMLID_11_"
     id="linearGradient2295"
     gradientUnits="userSpaceOnUse"
     x1="95"
     y1="103"
     x2="87.293"
     y2="95.293" /><linearGradient
     inkscape:collect="always"
     xlink:href="#XMLID_12_"
     id="linearGradient2297"
     gradientUnits="userSpaceOnUse"
     x1="96"
     y1="104"
     x2="88.0002"
     y2="96.0002" /><linearGradient
     inkscape:collect="always"
     xlink:href="#XMLID_2_"
     id="linearGradient2299"
     gradientUnits="userSpaceOnUse"
     x1="28"
     y1="57.5"
     x2="28"
     y2="0" /><radialGradient
     inkscape:collect="always"
     xlink:href="#XMLID_8_"
     id="radialGradient2272"
     gradientUnits="userSpaceOnUse"
     gradientTransform="matrix(0.9787234,0,0,0.9818182,1.3617045,1.1636364)"
     cx="102"
     cy="112.3047"
     r="139.55859" /><radialGradient
     inkscape:collect="always"
     xlink:href="#XMLID_7_"
     id="radialGradient2275"
     gradientUnits="userSpaceOnUse"
     gradientTransform="translate(2.4e-6,0)"
     cx="102"
     cy="112.3047"
     r="139.5585" /><radialGradient
     inkscape:collect="always"
     xlink:href="#linearGradient18668"
     id="radialGradient3239"
     gradientUnits="userSpaceOnUse"
     gradientTransform="matrix(1,0,0,1.2916104,-4,-19.57938)"
     cx="30.010139"
     cy="34.750149"
     fx="30.010139"
     fy="34.750149"
     r="20.78125" /><filter
     inkscape:collect="always"
     id="filter3241"><feGaussianBlur
       inkscape:collect="always"
       stdDeviation="1.0394514"
       id="feGaussianBlur3243" /></filter><inkscape:perspective
     id="perspective2921"
     inkscape:persp3d-origin="31.996061 : 21.531497 : 1"
     inkscape:vp_z="63.992123 : 32.297245 : 1"
     inkscape:vp_y="0 : 1000 : 0"
     inkscape:vp_x="0 : 32.297245 : 1"
     sodipodi:type="inkscape:persp3d" /><inkscape:perspective
     id="perspective3797"
     inkscape:persp3d-origin="0.5 : 0.33333333 : 1"
     inkscape:vp_z="1 : 0.5 : 1"
     inkscape:vp_y="0 : 1000 : 0"
     inkscape:vp_x="0 : 0.5 : 1"
     sodipodi:type="inkscape:persp3d" /><linearGradient
     inkscape:collect="always"
     xlink:href="#linearGradient5826"
     id="linearGradient5251"
     gradientUnits="userSpaceOnUse"
     gradientTransform="matrix(0.5519938,-0.5519938,0.5519938,0.5519938,105.93193,76.396136)"
     x1="58.743717"
     y1="78.411346"
     x2="58.743717"
     y2="-15.688621" /><linearGradient
     id="linearGradient5826"><stop
       id="stop5828"
       offset="0"
       style="stop-color:#810000;stop-opacity:1;" /><stop
       id="stop5830"
       offset="1"
       style="stop-color:#c50000;stop-opacity:1;" /></linearGradient><clipPath
     id="clipPath3559"
     clipPathUnits="userSpaceOnUse"><path
       style="fill:url(#linearGradient3563);fill-opacity:1;stroke:none"
       d="m -64.510272,10.75 c -1.042316,0.0084 -2.040208,0.423209 -2.78125,1.15625 L -84.260272,28.875 c -1.561474,1.562119 -1.561474,4.094131 0,5.65625 L -58.822772,60 l -25.4375,25.46875 c -1.561474,1.562119 -1.561474,4.094131 0,5.65625 l 16.96875,16.96875 c 1.562119,1.56147 4.094131,1.56147 5.65625,0 l 25.46875,-25.4375 25.46875,25.4375 c 1.5621191,1.56147 4.0941311,1.56147 5.6562501,0 L 11.927228,91.125 c 1.56147,-1.562119 1.56147,-4.094131 0,-5.65625 L -13.510272,60 11.927228,34.53125 c 1.56147,-1.562119 1.56147,-4.094131 0,-5.65625 L -5.0415219,11.90625 c -1.562119,-1.561474 -4.094131,-1.561474 -5.6562501,0 l -25.46875,25.4375 -25.46875,-25.4375 c -0.764077,-0.756011 -1.800247,-1.172731 -2.875,-1.15625 z m 31.1875,63.40625 c -0.751409,-0.759464 -1.775386,-1.18681 -2.84375,-1.18681 -1.068364,0 -2.092341,0.427346 -2.84375,1.18681 l 5.6875,0 z"
       id="path3561"
       sodipodi:nodetypes="cccccccccccccccccccccccscc" /></clipPath><filter
     color-interpolation-filters="sRGB"
     id="filter3549"
     height="1.2960713"
     y="-0.14803563"
     width="1.2328371"
     x="-0.11641854"
     inkscape:collect="always"><feGaussianBlur
       id="feGaussianBlur3551"
       stdDeviation="2.5695681"
       inkscape:collect="always" /></filter><linearGradient
     inkscape:collect="always"
     xlink:href="#linearGradient3499"
     id="linearGradient5253"
     gradientUnits="userSpaceOnUse"
     gradientTransform="scale(1.0975951,0.9110828)"
     x1="26.091133"
     y1="14.856744"
     x2="31.500689"
     y2="14.856744" /><linearGradient
     inkscape:collect="always"
     id="linearGradient3499"><stop
       style="stop-color:#ffffff;stop-opacity:1;"
       offset="0"
       id="stop3501" /><stop
       style="stop-color:#ffffff;stop-opacity:0;"
       offset="1"
       id="stop3503" /></linearGradient><filter
     color-interpolation-filters="sRGB"
     id="filter3477"
     height="1.2774813"
     y="-0.13874064"
     width="1.279832"
     x="-0.13991599"
     inkscape:collect="always"><feGaussianBlur
       id="feGaussianBlur3479"
       stdDeviation="0.28784801"
       inkscape:collect="always" /></filter><linearGradient
     inkscape:collect="always"
     xlink:href="#linearGradient3489"
     id="linearGradient5255"
     gradientUnits="userSpaceOnUse"
     gradientTransform="scale(1.0975951,0.9110828)"
     x1="26.091133"
     y1="14.856744"
     x2="31.500689"
     y2="14.856744" /><linearGradient
     inkscape:collect="always"
     id="linearGradient3489"><stop
       style="stop-color:#765c44;stop-opacity:1;"
       offset="0"
       id="stop3491" /><stop
       style="stop-color:#765c44;stop-opacity:0;"
       offset="1"
       id="stop3493" /></linearGradient><linearGradient
     inkscape:collect="always"
     xlink:href="#linearGradient3489"
     id="linearGradient5257"
     gradientUnits="userSpaceOnUse"
     x1="304.88663"
     y1="385.86127"
     x2="345.62039"
     y2="384.62384" /><linearGradient
     inkscape:collect="always"
     xlink:href="#linearGradient5433"
     id="linearGradient5259"
     gradientUnits="userSpaceOnUse"
     gradientTransform="matrix(0.5519938,-0.5519938,0.5519938,0.5519938,105.93193,76.396136)"
     x1="55.007042"
     y1="88.460976"
     x2="55.007042"
     y2="36.655769" /><linearGradient
     id="linearGradient5433"><stop
       style="stop-color:#ff0000;stop-opacity:1;"
       offset="0"
       id="stop5435" /><stop
       style="stop-color:#7f0000;stop-opacity:1;"
       offset="1"
       id="stop5437" /></linearGradient><linearGradient
     inkscape:collect="always"
     xlink:href="#linearGradient3366"
     id="linearGradient5261"
     gradientUnits="userSpaceOnUse"
     gradientTransform="translate(56.7,0)"
     spreadMethod="reflect"
     x1="31.90625"
     y1="13.510336"
     x2="34.875107"
     y2="13.510336" /><linearGradient
     id="linearGradient3366"
     inkscape:collect="always"><stop
       id="stop3368"
       offset="0"
       style="stop-color:#ff8787;stop-opacity:1;" /><stop
       id="stop4472"
       offset="1"
       style="stop-color:#ff8787;stop-opacity:0;" /></linearGradient><linearGradient
     inkscape:collect="always"
     xlink:href="#linearGradient3163"
     id="linearGradient5263"
     gradientUnits="userSpaceOnUse"
     x1="59.999996"
     y1="92.973083"
     x2="57.434441"
     y2="55.07938" /><linearGradient
     id="linearGradient3163"><stop
       offset="0"
       id="stop3165"
       style="stop-color:#fff5e4;stop-opacity:1;" /><stop
       offset="0.25"
       id="stop3173"
       style="stop-color:#ffecd0;stop-opacity:1;" /><stop
       offset="0.5"
       id="stop3171"
       style="stop-color:#ffd390;stop-opacity:1;" /><stop
       offset="1"
       id="stop3167"
       style="stop-color:#ffc46a;stop-opacity:1;" /></linearGradient><filter
     color-interpolation-filters="sRGB"
     id="filter3354"
     inkscape:collect="always"><feGaussianBlur
       id="feGaussianBlur3356"
       stdDeviation="0.45754832"
       inkscape:collect="always" /></filter><radialGradient
     inkscape:collect="always"
     xlink:href="#linearGradient3575"
     id="radialGradient5265"
     gradientUnits="userSpaceOnUse"
     gradientTransform="matrix(0.4576062,0,0,0.782313,-19.847694,18.82067)"
     cx="-36.592777"
     cy="90.072952"
     fx="-36.592777"
     fy="90.072952"
     r="25.986174" /><linearGradient
     id="linearGradient3575"
     inkscape:collect="always"><stop
       id="stop3577"
       offset="0"
       style="stop-color:#000000;stop-opacity:1;" /><stop
       id="stop3579"
       offset="1"
       style="stop-color:#000000;stop-opacity:0;" /></linearGradient><clipPath
     id="clipPath3858"
     clipPathUnits="userSpaceOnUse"><path
       style="fill:url(#linearGradient3563);fill-opacity:1;stroke:none"
       d="m -64.510272,10.75 c -1.042316,0.0084 -2.040208,0.423209 -2.78125,1.15625 L -84.260272,28.875 c -1.561474,1.562119 -1.561474,4.094131 0,5.65625 L -58.822772,60 l -25.4375,25.46875 c -1.561474,1.562119 -1.561474,4.094131 0,5.65625 l 16.96875,16.96875 c 1.562119,1.56147 4.094131,1.56147 5.65625,0 l 25.46875,-25.4375 25.46875,25.4375 c 1.5621191,1.56147 4.0941311,1.56147 5.6562501,0 L 11.927228,91.125 c 1.56147,-1.562119 1.56147,-4.094131 0,-5.65625 L -13.510272,60 11.927228,34.53125 c 1.56147,-1.562119 1.56147,-4.094131 0,-5.65625 L -5.0415219,11.90625 c -1.562119,-1.561474 -4.094131,-1.561474 -5.6562501,0 l -25.46875,25.4375 -25.46875,-25.4375 c -0.764077,-0.756011 -1.800247,-1.172731 -2.875,-1.15625 z m 31.1875,63.40625 c -0.751409,-0.759464 -1.775386,-1.18681 -2.84375,-1.18681 -1.068364,0 -2.092341,0.427346 -2.84375,1.18681 l 5.6875,0 z"
       id="path3860"
       sodipodi:nodetypes="cccccccccccccccccccccccscc" /></clipPath><linearGradient
     inkscape:collect="always"
     xlink:href="#linearGradient3397"
     id="linearGradient5267"
     gradientUnits="userSpaceOnUse"
     gradientTransform="matrix(0.7825428,-0.7825428,0.389368,0.389368,105.93193,76.396136)"
     x1="68.313011"
     y1="109.97649"
     x2="51.544849"
     y2="32.750854" /><linearGradient
     id="linearGradient3397"><stop
       style="stop-color:#f4f5f8;stop-opacity:1;"
       offset="0"
       id="stop3399" /><stop
       style="stop-color:#fdfdfe;stop-opacity:1;"
       offset="1"
       id="stop3401" /></linearGradient><linearGradient
     inkscape:collect="always"
     xlink:href="#linearGradient3366"
     id="linearGradient5269"
     gradientUnits="userSpaceOnUse"
     gradientTransform="matrix(0.5519938,-0.5519938,0.5519938,0.5519938,105.93193,76.396136)"
     x1="47.264141"
     y1="21.738457"
     x2="47.264141"
     y2="70.357269" /><linearGradient
     inkscape:collect="always"
     xlink:href="#linearGradient3207"
     id="linearGradient5271"
     gradientUnits="userSpaceOnUse"
     gradientTransform="matrix(0.5519938,-0.5519938,0.5519938,0.5519938,106.62882,77.079228)"
     x1="63.174049"
     y1="10.40386"
     x2="63.174042"
     y2="61.87199" /><linearGradient
     id="linearGradient3207"><stop
       style="stop-color:#ffffff;stop-opacity:1;"
       offset="0"
       id="stop3209" /><stop
       style="stop-color:#252525;stop-opacity:0;"
       offset="1"
       id="stop3211" /></linearGradient><linearGradient
     inkscape:collect="always"
     xlink:href="#linearGradient3207"
     id="linearGradient5273"
     gradientUnits="userSpaceOnUse"
     gradientTransform="translate(-0.3,0)"
     spreadMethod="reflect"
     x1="31.90625"
     y1="13.510336"
     x2="34.875107"
     y2="13.510336" /><linearGradient
     id="linearGradient3882"><stop
       style="stop-color:#ffffff;stop-opacity:1;"
       offset="0"
       id="stop3884" /><stop
       style="stop-color:#252525;stop-opacity:0;"
       offset="1"
       id="stop3886" /></linearGradient><linearGradient
     y2="13.510336"
     x2="34.875107"
     y1="13.510336"
     x1="31.90625"
     spreadMethod="reflect"
     gradientTransform="translate(56.7,0)"
     gradientUnits="userSpaceOnUse"
     id="linearGradient3970"
     xlink:href="#linearGradient3207"
     inkscape:collect="always" /><linearGradient
     id="linearGradient3893"><stop
       style="stop-color:#ffffff;stop-opacity:1;"
       offset="0"
       id="stop3895" /><stop
       style="stop-color:#252525;stop-opacity:0;"
       offset="1"
       id="stop3897" /></linearGradient><linearGradient
     y2="13.510336"
     x2="34.875107"
     y1="13.510336"
     x1="31.90625"
     spreadMethod="reflect"
     gradientTransform="translate(56.7,0)"
     gradientUnits="userSpaceOnUse"
     id="linearGradient3918"
     xlink:href="#linearGradient3207"
     inkscape:collect="always" /></defs><sodipodi:namedview
   inkscape:window-height="670"
   inkscape:window-width="1022"
   inkscape:pageshadow="2"
   inkscape:pageopacity="0.0"
   guidetolerance="10.0"
   gridtolerance="10.0"
   objecttolerance="10.0"
   borderopacity="1.0"
   bordercolor="#666666"
   pagecolor="#ffffff"
   id="base"
   inkscape:zoom="2.8284271"
   inkscape:cx="63.856972"
   inkscape:cy="57.431611"
   inkscape:window-x="2"
   inkscape:window-y="27"
   inkscape:current-layer="Layer_1"
   showgrid="true"
   showguides="true"
   inkscape:guide-bbox="true"
   inkscape:window-maximized="0"><inkscape:grid
     id="GridFromPre046Settings"
     type="xygrid"
     originx="0px"
     originy="0px"
     spacingx="4px"
     spacingy="4px"
     color="#0000ff"
     empcolor="#0000ff"
     opacity="0.2"
     empopacity="0.4"
     empspacing="2" /></sodipodi:namedview>
<metadata
   id="metadata3">
	<ns:sfw>
		<ns:slices>
			<ns:slice
   y="0"
   x="0"
   height="128"
   width="128"
   sliceID="1316743234" />
		</ns:slices>
		<ns:sliceSourceBounds
   y="0"
   x="0"
   height="128"
   width="128"
   bottomLeftOrigin="true" />
		<ns:optimizationSettings>
			<ns:targetSettings
   targetSettingsID="0"
   fileFormat="PNG24Format">
				<ns:PNG24Format
   transparency="true"
   filtered="false"
   matteColor="#FFFFFF"
   noMatteColor="false"
   interlaced="false">
					</ns:PNG24Format>
			</ns:targetSettings>
			<ns:targetSettings
   targetSettingsID="1696735251"
   fileFormat="PNG24Format">
				<ns:PNG24Format
   transparency="true"
   filtered="false"
   matteColor="#FFFFFF"
   noMatteColor="false"
   interlaced="false">
					</ns:PNG24Format>
			</ns:targetSettings>
		</ns:optimizationSettings>
	</ns:sfw>
<rdf:RDF><cc:Work
     rdf:about=""><dc:format>image/svg+xml</dc:format><dc:type
       rdf:resource="http://purl.org/dc/dcmitype/StillImage" /><dc:title /></cc:Work></rdf:RDF></metadata>

<radialGradient
   id="XMLID_7_"
   cx="102"
   cy="112.3047"
   r="139.5585"
   gradientUnits="userSpaceOnUse">
	<stop
   offset="0"
   style="stop-color:#00537D"
   id="stop16" />
	<stop
   offset="0.0151"
   style="stop-color:#186389"
   id="stop18" />
	<stop
   offset="0.0558"
   style="stop-color:#558CA8"
   id="stop20" />
	<stop
   offset="0.0964"
   style="stop-color:#89AFC3"
   id="stop22" />
	<stop
   offset="0.1357"
   style="stop-color:#B3CCD8"
   id="stop24" />
	<stop
   offset="0.1737"
   style="stop-color:#D4E2E9"
   id="stop26" />
	<stop
   offset="0.2099"
   style="stop-color:#ECF2F5"
   id="stop28" />
	<stop
   offset="0.2435"
   style="stop-color:#FAFCFD"
   id="stop30" />
	<stop
   offset="0.2722"
   style="stop-color:#FFFFFF"
   id="stop32" />
</radialGradient>

<radialGradient
   id="XMLID_8_"
   cx="102"
   cy="112.3047"
   r="139.55859"
   gradientUnits="userSpaceOnUse">
	<stop
   offset="0"
   style="stop-color:#535557"
   id="stop37" />
	
	<stop
   offset="0.11366145"
   style="stop-color:#898A8C"
   id="stop41" />
	
	
	<stop
   offset="0.20296688"
   style="stop-color:#ECECEC"
   id="stop47" />
	<stop
   offset="0.2363"
   style="stop-color:#FAFAFA"
   id="stop49" />
	<stop
   offset="0.2722"
   style="stop-color:#FFFFFF"
   id="stop51" />
	<stop
   offset="0.5313"
   style="stop-color:#FAFAFA"
   id="stop53" />
	<stop
   offset="0.8449"
   style="stop-color:#EBECEC"
   id="stop55" />
	<stop
   offset="1"
   style="stop-color:#E1E2E3"
   id="stop57" />
</radialGradient>

<linearGradient
   id="XMLID_9_"
   gradientUnits="userSpaceOnUse"
   x1="94.3438"
   y1="102.3447"
   x2="86.5356"
   y2="94.5366">
	<stop
   offset="0"
   style="stop-color:#FFFFFF"
   id="stop62" />
	<stop
   offset="1"
   style="stop-color:#555753"
   id="stop64" />
</linearGradient>

<linearGradient
   id="XMLID_10_"
   gradientUnits="userSpaceOnUse"
   x1="95"
   y1="103"
   x2="86.5865"
   y2="94.5865">
	<stop
   offset="0"
   style="stop-color:#FFFFFF"
   id="stop69" />
	<stop
   offset="1"
   style="stop-color:#555753"
   id="stop71" />
</linearGradient>

<linearGradient
   id="XMLID_11_"
   gradientUnits="userSpaceOnUse"
   x1="95"
   y1="103"
   x2="87.293"
   y2="95.293">
	<stop
   offset="0"
   style="stop-color:#FFFFFF"
   id="stop76" />
	<stop
   offset="1"
   style="stop-color:#393B38"
   id="stop78" />
</linearGradient>

<linearGradient
   id="XMLID_12_"
   gradientUnits="userSpaceOnUse"
   x1="96"
   y1="104"
   x2="88.0002"
   y2="96.0002">
	<stop
   offset="0"
   style="stop-color:#888A85"
   id="stop83" />
	<stop
   offset="0.0072"
   style="stop-color:#8C8E89"
   id="stop85" />
	<stop
   offset="0.0673"
   style="stop-color:#ABACA9"
   id="stop87" />
	<stop
   offset="0.1347"
   style="stop-color:#C5C6C4"
   id="stop89" />
	<stop
   offset="0.2115"
   style="stop-color:#DBDBDA"
   id="stop91" />
	<stop
   offset="0.3012"
   style="stop-color:#EBEBEB"
   id="stop93" />
	<stop
   offset="0.4122"
   style="stop-color:#F7F7F6"
   id="stop95" />
	<stop
   offset="0.5679"
   style="stop-color:#FDFDFD"
   id="stop97" />
	<stop
   offset="1"
   style="stop-color:#FFFFFF"
   id="stop99" />
</linearGradient>
<path
   id="path6594"
   d="M 23,9 L 23.040816,121 L 84.172,121 C 84.702,121 85.211,120.789 85.586,120.414 L 118.414,87.586 C 118.789,87.211 119,86.702 119,86.172 L 119,9 L 23,9 z "
   style="opacity:0.5;fill:#000000;fill-opacity:1;filter:url(#filter3241)"
   transform="matrix(1.0416667,0,0,1.0357143,-9.9583333,-3.3215342)"
   sodipodi:nodetypes="cccccccc" /><path
   style="fill:url(#radialGradient2275)"
   d="M 16.000002,8 L 16.000002,120 L 77.172002,120 C 77.702002,120 78.211002,119.789 78.586002,119.414 L 111.414,86.586 C 111.789,86.211 112,85.702 112,85.172 L 112,8 L 16.000002,8 z "
   id="path34"
   sodipodi:nodetypes="cccccccc" /><path
   style="fill:url(#radialGradient2272);fill-opacity:1"
   d="M 18.978725,10 C 18.439449,10 18.000002,10.440836 18.000002,10.981818 L 18.000002,117.01818 C 18.000002,117.56015 18.439449,118 18.978725,118 L 76.891747,118 C 77.149151,118 77.401662,117.89593 77.583704,117.71233 L 109.71323,85.4812 C 109.89626,85.2976 110,85.045273 110,84.787055 L 110,10.981818 C 110,10.440836 109.56153,10 109.02128,10 L 18.978725,10 z "
   id="path59" /><g
   id="g1973"
   transform="translate(2.4e-6,0)"><path
     style="opacity:0.1;fill:url(#linearGradient2291)"
     id="path66"
     d="M 111.414,86.586 C 111.664,86.336 93.035,93 88,93 C 86.346,93 85,94.346 85,96 C 85,101.035 78.336,119.664 78.586,119.414 L 111.414,86.586 z " /><path
     style="opacity:0.1;fill:url(#linearGradient2293)"
     id="path73"
     d="M 111.414,86.586 C 111.789,86.211 97.444,94 88,94 C 86.897,94 86,94.897 86,96 C 86,105.444 78.211,119.789 78.586,119.414 L 111.414,86.586 z " /><path
     style="opacity:0.1;fill:url(#linearGradient2295)"
     id="path80"
     d="M 111.414,86.586 C 111.653,86.347 97.807,95 88,95 C 87.447,95 87,95.447 87,96 C 87,105.807 78.347,119.653 78.586,119.414 L 111.414,86.586 z " /><path
     style="fill:url(#linearGradient2297)"
     id="path101"
     d="M 78.586,119.414 C 78.586,119.414 90.5,109.5 96,104 C 101.5,98.5 111.414,86.586 111.414,86.586 C 111.414,86.586 98.25,96 88,96 C 88,106.25 78.586,119.414 78.586,119.414 z " /></g>

<g
   id="g5235"
   transform="matrix(0.58812176,0.58812176,-0.58812176,0.58812176,39.75646,-50.18785)"><path
     sodipodi:nodetypes="cccccccccccccccccccccccscc"
     id="path3300"
     d="m 129.33992,64.856016 c -0.57074,0.579963 -0.89258,1.359791 -0.89699,2.173475 l 0,18.73329 c 3.5e-4,1.724204 1.39801,3.121859 3.12221,3.122215 l 28.09994,0.01725 0.0173,28.099934 c 3.5e-4,1.7242 1.39801,3.12186 3.12221,3.12221 l 18.73329,0 c 1.7242,-3.5e-4 3.12186,-1.39801 3.12222,-3.12221 l 0.0172,-28.099934 28.09993,-0.01725 c 1.7242,-3.59e-4 3.12186,-1.398013 3.12221,-3.122215 l 0,-18.73329 c -3.5e-4,-1.724202 -1.39801,-3.121856 -3.12221,-3.122215 l -28.09993,-0.01725 -0.0172,-28.099934 c -3.6e-4,-1.724202 -1.39802,-3.121857 -3.12222,-3.122215 l -18.73329,0 c -1.7242,3.56e-4 -3.12186,1.398011 -3.12221,3.122215 l -0.0173,28.099934 -28.09994,0.01725 c -0.83908,0.0045 -1.64106,0.346385 -2.22522,0.94874 z m 52.21516,17.78455 c -0.83399,-0.0044 -1.63511,0.32489 -2.22484,0.91462 -0.58973,0.589731 -0.91907,1.390852 -0.91462,2.224845 l 3.13946,-3.139465 z"
     style="fill:url(#linearGradient5251);fill-opacity:1;stroke:none" /><path
     transform="matrix(0.5519938,-0.5519938,0.5519938,0.5519938,159.04481,23.283251)"
     clip-path="url(#clipPath3559)"
     id="path3507"
     d="M -62.57895,106.7868 -36.415999,79.916739 -10.606602,106.43324 -36.415999,66.128157 -62.57895,106.7868 z"
     style="fill:#000000;fill-opacity:1;fill-rule:evenodd;stroke:#000000;stroke-width:1px;stroke-linecap:butt;stroke-linejoin:miter;stroke-opacity:1;filter:url(#filter3549)" /><path
     transform="matrix(1.0290495,1.0290495,-1.0290495,1.0290495,192.98125,21.797594)"
     style="opacity:0.49812736;fill:url(#linearGradient5253);fill-opacity:1;fill-rule:evenodd;stroke:none;filter:url(#filter3477)"
     d="m 31.7,16 2.875,-3.375 C 33.523795,10.929242 30.639864,10.336982 28.6375,12.3125 L 31.45,15.6875 31.7,16 z"
     id="path5159"
     sodipodi:nodetypes="ccccc" /><path
     transform="matrix(1.0162687,-1.0162687,-1.0162687,-1.0162687,162.35151,162.06868)"
     style="opacity:0.79026214;fill:url(#linearGradient5255);fill-opacity:1;fill-rule:evenodd;stroke:none;filter:url(#filter3477)"
     d="m 31.7,16 2.875,-3.375 C 33.523795,10.929242 30.639864,10.336982 28.6375,12.3125 L 31.45,15.6875 31.7,16 z"
     id="path3485"
     sodipodi:nodetypes="ccccc" /><path
     sodipodi:nodetypes="ccccc"
     id="path3493"
     d="m 31.7,16 2.875,-3.375 C 33.523795,10.929242 30.639864,10.336982 28.6375,12.3125 L 31.45,15.6875 31.7,16 z"
     style="opacity:0.49812736;fill:url(#linearGradient5257);fill-opacity:1;fill-rule:evenodd;stroke:none;filter:url(#filter3477)"
     transform="matrix(0.9318551,0.9318551,0.9318551,-0.9318551,121.67005,99.232803)" /><path
     id="rect2323"
     d="m 164.80354,37.803006 0,31.225484 -31.22548,0 0,14.735292 31.22548,0 0,31.225488 14.73529,-1e-5 0,-31.225478 31.22548,-3e-6 0,-14.735286 -31.22548,-3e-6 0,-31.225481 -14.73529,-3e-6 z"
     style="opacity:0.92134836;fill:url(#linearGradient5259);fill-opacity:1;stroke:none"
     sodipodi:nodetypes="ccccccccccccc" /><path
     transform="matrix(0.9318551,-0.9318551,-0.9318551,-0.9318551,142.5614,180.26404)"
     sodipodi:nodetypes="ccccc"
     id="path3487"
     d="m 88.7,16 2.875,-3.375 C 90.523795,10.929242 87.639864,10.336982 85.6375,12.3125 L 88.45,15.6875 88.7,16 z"
     style="opacity:0.79026214;fill:url(#linearGradient5261);fill-opacity:1;fill-rule:evenodd;stroke:none;filter:url(#filter3477)" /><path
     transform="matrix(0.5519938,-0.5519938,0.5519938,0.5519938,105.93193,76.396136)"
     style="opacity:0.92134836;fill:none;stroke:url(#linearGradient5263);stroke-width:1;stroke-linecap:round;stroke-linejoin:round;stroke-miterlimit:4;stroke-opacity:1;stroke-dasharray:none;stroke-dashoffset:1.08779998;filter:url(#filter3354)"
     d="M 88.284271,18.368396 60,46.652666 31.715729,18.368396 18.368396,31.715729 46.652666,60 18.368396,88.284271 31.715729,101.63161 60,73.347334 88.284271,101.63161 101.63161,88.284271 73.347334,60 101.63161,31.715729 88.284271,18.368396 z"
     id="path3328"
     sodipodi:nodetypes="ccccccccccccc" /><path
     style="fill:url(#radialGradient5265);fill-opacity:1;fill-rule:evenodd;stroke:none;filter:url(#filter3549)"
     d="M -62.57895,106.7868 -36.415999,79.916739 -10.606602,106.43324 -36.415999,66.128157 -62.57895,106.7868 z"
     id="path3565"
     clip-path="url(#clipPath3559)"
     transform="matrix(0.5519938,-0.5519938,-0.5519938,-0.5519938,225.02375,89.262187)" /><path
     sodipodi:nodetypes="cccccccccccsccsccccc"
     id="path3374"
     d="m 133.53418,69.001347 0,0.82799 0,13.905298 0.55199,-13.905298 30.71975,-0.79996 0.5024,-30.422189 12.38732,-2e-6 c 0.22599,0.334337 0.42458,0.679196 0.62099,1.034989 l 1.10399,14.525315 c -3.03496,9.069512 -8.49777,20.484758 -17.56128,29.567145 l 0.31049,0 c 0.26338,-0.257245 0.53177,-0.497263 0.7935,-0.758991 9.10018,-9.100181 13.48365,-17.231714 16.52629,-26.324182 l 0,-17.837281 c -0.0905,-0.163947 -0.1821,-0.323654 -0.276,-0.482994 -0.10987,-0.186463 -0.22313,-0.371713 -0.34499,-0.551994 l -14.1123,4e-6 0,0.827991 0.0496,30.422189 -31.27174,-0.02803 z"
     style="fill:url(#linearGradient5267);fill-opacity:1;stroke:none" /><path
     id="path5167"
     d="m 133.58239,69.029492 0,14.733288 28.63566,0 c 0.26337,-0.257244 0.53176,-0.497264 0.79349,-0.758991 9.10018,-9.100184 13.48365,-17.231714 16.52629,-26.324182 l 10e-6,-17.837282 c -0.19641,-0.355797 -0.39501,-0.700651 -0.621,-1.034988 l -14.1123,5e-6 0,31.222149 -31.22215,1e-6 z"
     style="fill:url(#linearGradient5269);fill-opacity:1;stroke:none"
     sodipodi:nodetypes="cccscccccc" /><path
     style="fill:url(#linearGradient5271);fill-opacity:1;stroke:none"
     d="m 133.53418,69.001347 0,0.82799 0,13.905298 0.55199,-13.905298 31.76477,0.237807 -1.04502,-1.037767 1.03886,1.027889 -0.53646,-31.450078 12.38732,-2e-6 c 0.22599,0.334337 0.42458,0.679196 0.62099,1.034989 l 1.10399,14.525315 c -3.03496,9.069512 -8.49777,20.484758 -17.56128,29.567145 l 0.31049,0 c 0.26338,-0.257245 0.53177,-0.497263 0.7935,-0.758991 9.10018,-9.100181 13.48365,-17.231714 16.52629,-26.324182 l 0,-17.837281 c -0.0905,-0.163947 -0.1821,-0.323654 -0.276,-0.482994 -0.10987,-0.186463 -0.22313,-0.371713 -0.34499,-0.551994 l -14.1123,4e-6 0,0.827991 0.0496,30.422189 -31.27174,-0.02803 z"
     id="path3399"
     sodipodi:nodetypes="cccccccccccccsccsccccc" /><path
     transform="matrix(0.8474415,-0.8474415,0.8474415,0.8474415,93.833347,82.913071)"
     sodipodi:nodetypes="ccccc"
     id="path3403"
     d="m 31.7,16 2.875,-3.375 C 33.523795,10.929242 30.639864,10.336982 28.6375,12.3125 L 31.45,15.6875 31.7,16 z"
     style="opacity:0.79026214;fill:url(#linearGradient5273);fill-opacity:1;fill-rule:evenodd;stroke:none;filter:url(#filter3477)" /><path
     transform="matrix(0.8700309,-0.8700309,0.8700309,0.8700309,74.780195,101.53946)"
     style="opacity:0.79026214;fill:url(#linearGradient3918);fill-opacity:1;fill-rule:evenodd;stroke:none;filter:url(#filter3477)"
     d="m 88.7,16 2.875,-3.375 C 90.523795,10.929242 87.639864,10.336982 85.6375,12.3125 L 88.45,15.6875 88.7,16 z"
     id="path3481"
     sodipodi:nodetypes="ccccc" /></g></svg>