<?xml version="1.0" encoding="UTF-8" standalone="no"?>
<!-- Generator: Adobe Illustrator 12.0.0, SVG Export Plug-In . SVG Version: 6.00 Build 51448)  -->

<svg
   xmlns:ns="http://ns.adobe.com/SaveForWeb/1.0/"
   xmlns:dc="http://purl.org/dc/elements/1.1/"
   xmlns:cc="http://creativecommons.org/ns#"
   xmlns:rdf="http://www.w3.org/1999/02/22-rdf-syntax-ns#"
   xmlns:svg="http://www.w3.org/2000/svg"
   xmlns="http://www.w3.org/2000/svg"
   xmlns:xlink="http://www.w3.org/1999/xlink"
   xmlns:sodipodi="http://sodipodi.sourceforge.net/DTD/sodipodi-0.dtd"
   xmlns:inkscape="http://www.inkscape.org/namespaces/inkscape"
   version="1.1"
   id="Layer_1"
   width="128"
   height="128"
   viewBox="0 0 128 128"
   overflow="visible"
   enable-background="new 0 0 128 128"
   xml:space="preserve"
   sodipodi:version="0.32"
   inkscape:version="0.47 r22583"
   sodipodi:docname="document-new_moderaser.svg"
   inkscape:output_extension="org.inkscape.output.svgz.inkscape"
   inkscape:export-filename="/Users/david/Desktop/sandbox/document-new2.png"
   inkscape:export-xdpi="22.5"
   inkscape:export-ydpi="22.5"><defs
   id="defs105"><inkscape:perspective
     sodipodi:type="inkscape:persp3d"
     inkscape:vp_x="0 : 64 : 1"
     inkscape:vp_y="0 : 1000 : 0"
     inkscape:vp_z="128 : 64 : 1"
     inkscape:persp3d-origin="64 : 42.666667 : 1"
     id="perspective106" /><linearGradient
     id="linearGradient6740"><stop
       style="stop-color:#004d00;stop-opacity:0;"
       offset="0"
       id="stop6742" /><stop
       id="stop6748"
       offset="0.5"
       style="stop-color:#004d00;stop-opacity:1;" /><stop
       style="stop-color:#004d00;stop-opacity:0;"
       offset="1"
       id="stop6744" /></linearGradient><linearGradient
     gradientTransform="matrix(0,1,-1,0,-39.9985,140.0029)"
     y2="-383.9975"
     x2="-23.516129"
     y1="-383.9971"
     x1="-84.002403"
     gradientUnits="userSpaceOnUse"
     id="linearGradient3711"><stop
       id="stop3713"
       style="stop-color:white;stop-opacity:1;"
       offset="0" /><stop
       id="stop3715"
       style="stop-color:white;stop-opacity:0;"
       offset="1" /></linearGradient><filter
     inkscape:collect="always"
     id="filter7317"><feGaussianBlur
       inkscape:collect="always"
       stdDeviation="2.8805897"
       id="feGaussianBlur7319" /></filter><clipPath
     clipPathUnits="userSpaceOnUse"
     id="clipPath5163"><circle
       sodipodi:ry="36"
       sodipodi:rx="36"
       sodipodi:cy="92"
       sodipodi:cx="343.99899"
       style="fill:url(#linearGradient5167);fill-opacity:1"
       r="36"
       rx="8.0010004"
       cx="343.99899"
       cy="92"
       ry="8.0010004"
       id="circle5165" /></clipPath><linearGradient
     id="linearGradient4296"><stop
       id="stop4298"
       offset="0"
       style="stop-color:#00ff00;stop-opacity:1" /><stop
       id="stop4300"
       offset="1"
       style="stop-color:#006500;stop-opacity:1" /></linearGradient><linearGradient
     inkscape:collect="always"
     xlink:href="#linearGradient4296"
     id="linearGradient4272"
     gradientUnits="userSpaceOnUse"
     x1="328.12448"
     y1="120.81158"
     x2="336.98077"
     y2="87.759453" /><linearGradient
     gradientTransform="matrix(0,1,-1,0,-39.9985,140.0029)"
     y2="-383.9971"
     x2="-12.0029"
     y1="-383.9971"
     x1="-84.002403"
     gradientUnits="userSpaceOnUse"
     id="linearGradient4770"><stop
       id="stop4772"
       style="stop-color:#e5ff00;stop-opacity:1"
       offset="0" /><stop
       id="stop4774"
       style="stop-color:#bff500;stop-opacity:0;"
       offset="1" /></linearGradient><linearGradient
     gradientTransform="matrix(0,1,-1,0,-39.9985,140.0029)"
     y2="-383.9971"
     x2="-12.0029"
     y1="-383.9971"
     x1="-84.002403"
     gradientUnits="userSpaceOnUse"
     id="linearGradient5958"><stop
       id="stop5960"
       style="stop-color:#008c00;stop-opacity:1"
       offset="0" /><stop
       id="stop5962"
       style="stop-color:#00bf00;stop-opacity:1"
       offset="1" /></linearGradient><linearGradient
     y2="0"
     x2="28"
     y1="57.5"
     x1="28"
     gradientUnits="userSpaceOnUse"
     id="linearGradient18668">
			<stop
   id="stop18670"
   style="stop-color:#fffccf;stop-opacity:1;"
   offset="0" />
			<stop
   id="stop18672"
   style="stop-color:white;stop-opacity:0;"
   offset="1" />
		</linearGradient><linearGradient
     id="XMLID_2_"
     gradientUnits="userSpaceOnUse"
     x1="28"
     y1="57.5"
     x2="28"
     y2="0">
			<stop
   offset="0"
   style="stop-color:#FFEA00"
   id="stop12" />
			<stop
   offset="1"
   style="stop-color:#FFCC00"
   id="stop14" />
		</linearGradient><linearGradient
     inkscape:collect="always"
     xlink:href="#XMLID_9_"
     id="linearGradient2291"
     gradientUnits="userSpaceOnUse"
     x1="94.3438"
     y1="102.3447"
     x2="86.5356"
     y2="94.5366" /><linearGradient
     inkscape:collect="always"
     xlink:href="#XMLID_10_"
     id="linearGradient2293"
     gradientUnits="userSpaceOnUse"
     x1="95"
     y1="103"
     x2="86.5865"
     y2="94.5865" /><linearGradient
     inkscape:collect="always"
     xlink:href="#XMLID_11_"
     id="linearGradient2295"
     gradientUnits="userSpaceOnUse"
     x1="95"
     y1="103"
     x2="87.293"
     y2="95.293" /><linearGradient
     inkscape:collect="always"
     xlink:href="#XMLID_12_"
     id="linearGradient2297"
     gradientUnits="userSpaceOnUse"
     x1="96"
     y1="104"
     x2="88.0002"
     y2="96.0002" /><linearGradient
     inkscape:collect="always"
     xlink:href="#XMLID_2_"
     id="linearGradient2299"
     gradientUnits="userSpaceOnUse"
     x1="28"
     y1="57.5"
     x2="28"
     y2="0" /><radialGradient
     inkscape:collect="always"
     xlink:href="#XMLID_8_"
     id="radialGradient2272"
     gradientUnits="userSpaceOnUse"
     gradientTransform="matrix(0.9787234,0,0,0.9818182,1.3617045,1.1636364)"
     cx="102"
     cy="112.3047"
     r="139.55859" /><radialGradient
     inkscape:collect="always"
     xlink:href="#XMLID_7_"
     id="radialGradient2275"
     gradientUnits="userSpaceOnUse"
     gradientTransform="translate(2.4e-6,0)"
     cx="102"
     cy="112.3047"
     r="139.5585" /><radialGradient
     inkscape:collect="always"
     xlink:href="#linearGradient18668"
     id="radialGradient3239"
     gradientUnits="userSpaceOnUse"
     gradientTransform="matrix(1,0,0,1.2916104,-4,-19.57938)"
     cx="30.010139"
     cy="34.750149"
     fx="30.010139"
     fy="34.750149"
     r="20.78125" /><filter
     inkscape:collect="always"
     id="filter3241"><feGaussianBlur
       inkscape:collect="always"
       stdDeviation="1.0394514"
       id="feGaussianBlur3243" /></filter><inkscape:perspective
     id="perspective3196"
     inkscape:persp3d-origin="0.5 : 0.33333333 : 1"
     inkscape:vp_z="1 : 0.5 : 1"
     inkscape:vp_y="0 : 1000 : 0"
     inkscape:vp_x="0 : 0.5 : 1"
     sodipodi:type="inkscape:persp3d" /><radialGradient
     inkscape:collect="always"
     xlink:href="#linearGradient3291"
     id="radialGradient3107"
     gradientUnits="userSpaceOnUse"
     gradientTransform="matrix(1,0,0,0.197802,1427.5223,235.17201)"
     cx="63.912209"
     cy="115.70919"
     fx="28.865602"
     fy="135.33501"
     r="63.912209" /><linearGradient
     id="linearGradient3291"
     inkscape:collect="always"><stop
       id="stop3293"
       offset="0"
       style="stop-color:#000000;stop-opacity:1;" /><stop
       id="stop3295"
       offset="1"
       style="stop-color:#000000;stop-opacity:0;" /></linearGradient><linearGradient
     inkscape:collect="always"
     xlink:href="#linearGradient4131"
     id="linearGradient3518"
     gradientUnits="userSpaceOnUse"
     gradientTransform="matrix(0.4695816,0,0,0.4680988,905.62956,21.579329)"
     x1="1316.3584"
     y1="335.24103"
     x2="1328.4294"
     y2="323.17004" /><linearGradient
     id="linearGradient4131"><stop
       style="stop-color:#888888;stop-opacity:1;"
       offset="0"
       id="stop4133" /><stop
       style="stop-color:#888888;stop-opacity:0;"
       offset="1"
       id="stop4135" /></linearGradient><linearGradient
     inkscape:collect="always"
     xlink:href="#linearGradient4178"
     id="linearGradient3515"
     gradientUnits="userSpaceOnUse"
     gradientTransform="matrix(0.4645221,0,0,0.4638897,911.0094,24.174062)"
     x1="1182.0486"
     y1="508.39056"
     x2="1152.9833"
     y2="441.95822" /><linearGradient
     id="linearGradient4178"><stop
       style="stop-color:#dddddd;stop-opacity:1;"
       offset="0"
       id="stop4180" /><stop
       style="stop-color:#eeeeee;stop-opacity:1;"
       offset="1"
       id="stop4182" /></linearGradient><linearGradient
     inkscape:collect="always"
     xlink:href="#linearGradient4141"
     id="linearGradient3512"
     gradientUnits="userSpaceOnUse"
     x1="-140.09375"
     y1="197.04688"
     x2="-214.40625"
     y2="310.04688"
     gradientTransform="matrix(0.4695816,0,0,0.4695816,1574.81,89.50411)" /><linearGradient
     id="linearGradient4141"><stop
       style="stop-color:#eeeeee;stop-opacity:1;"
       offset="0"
       id="stop4143" /><stop
       style="stop-color:#dfdfdf;stop-opacity:1;"
       offset="1"
       id="stop4145" /></linearGradient><linearGradient
     inkscape:collect="always"
     xlink:href="#linearGradient3521"
     id="linearGradient3549"
     gradientUnits="userSpaceOnUse"
     x1="1465.4807"
     y1="261.60468"
     x2="1464.5074"
     y2="260.59665"
     gradientTransform="matrix(-1,0,0,-1,2908.7039,488.06569)" /><linearGradient
     inkscape:collect="always"
     id="linearGradient3521"><stop
       style="stop-color:#000000;stop-opacity:1;"
       offset="0"
       id="stop3523" /><stop
       style="stop-color:#000000;stop-opacity:0;"
       offset="1"
       id="stop3525" /></linearGradient><linearGradient
     inkscape:collect="always"
     xlink:href="#linearGradient3521"
     id="linearGradient3539"
     gradientUnits="userSpaceOnUse"
     gradientTransform="matrix(-0.482916,-1.4677695,0.5089942,-1.5470316,2090.8715,2716.9265)"
     x1="1465.824"
     y1="261.93036"
     x2="1465.2319"
     y2="261.30896" /><linearGradient
     inkscape:collect="always"
     xlink:href="#linearGradient3462"
     id="linearGradient3468"
     x1="1480.3827"
     y1="204.03857"
     x2="1480.3827"
     y2="160.58171"
     gradientUnits="userSpaceOnUse" /><linearGradient
     id="linearGradient3462"><stop
       style="stop-color:#bf0303;stop-opacity:1;"
       offset="0"
       id="stop3464" /><stop
       style="stop-color:#e20800;stop-opacity:1;"
       offset="1"
       id="stop3466" /></linearGradient><linearGradient
     inkscape:collect="always"
     xlink:href="#linearGradient3521"
     id="linearGradient3543"
     gradientUnits="userSpaceOnUse"
     gradientTransform="matrix(1.8255874,0.4829161,1.9241724,-0.5089942,-1642.1503,-392.85391)"
     x1="1465.824"
     y1="261.93036"
     x2="1465.2319"
     y2="261.30896" /><linearGradient
     inkscape:collect="always"
     xlink:href="#linearGradient3462"
     id="linearGradient3505"
     gradientUnits="userSpaceOnUse"
     x1="1242.4286"
     y1="449.11499"
     x2="1242.4286"
     y2="352.72833"
     gradientTransform="matrix(0.4695816,0,0,0.4695816,904.47181,22.540976)" /><linearGradient
     id="linearGradient3239"><stop
       style="stop-color:#bf0303;stop-opacity:1;"
       offset="0"
       id="stop3241" /><stop
       style="stop-color:#e20800;stop-opacity:1;"
       offset="1"
       id="stop3243" /></linearGradient><radialGradient
     inkscape:collect="always"
     xlink:href="#linearGradient3525"
     id="radialGradient3533"
     cx="1518.1744"
     cy="154.83128"
     fx="1518.1744"
     fy="154.83128"
     r="45.834949"
     gradientTransform="matrix(3.1677546,-1.9317804,0.5553605,0.9106865,-3369.5496,2935.4572)"
     gradientUnits="userSpaceOnUse" /><linearGradient
     inkscape:collect="always"
     id="linearGradient3525"><stop
       style="stop-color:#ffffff;stop-opacity:1;"
       offset="0"
       id="stop3527" /><stop
       style="stop-color:#ffffff;stop-opacity:0;"
       offset="1"
       id="stop3529" /></linearGradient><linearGradient
     inkscape:collect="always"
     xlink:href="#linearGradient3521"
     id="linearGradient3474"
     gradientUnits="userSpaceOnUse"
     x1="1465.4807"
     y1="261.60468"
     x2="1464.4922"
     y2="260.63828" /><linearGradient
     inkscape:collect="always"
     xlink:href="#linearGradient3521"
     id="linearGradient3531"
     gradientUnits="userSpaceOnUse"
     x1="1465.824"
     y1="261.93036"
     x2="1465.2319"
     y2="261.30896"
     gradientTransform="matrix(1.8752556e-7,2.0757397,-2.187833,1.779177e-7,2014.2025,-2796.1845)" /><linearGradient
     inkscape:collect="always"
     xlink:href="#linearGradient3521"
     id="linearGradient3535"
     gradientUnits="userSpaceOnUse"
     gradientTransform="matrix(-1.8752556e-7,-2.0757397,2.187833,-1.779177e-7,963.7883,3222.5894)"
     x1="1465.824"
     y1="261.93036"
     x2="1465.0554"
     y2="261.14148" /><linearGradient
     inkscape:collect="always"
     xlink:href="#linearGradient3472"
     id="linearGradient3478"
     x1="1183.0288"
     y1="-950.54388"
     x2="1183.3557"
     y2="-953.16302"
     gradientUnits="userSpaceOnUse" /><linearGradient
     inkscape:collect="always"
     id="linearGradient3472"><stop
       style="stop-color:#ffffff;stop-opacity:1;"
       offset="0"
       id="stop3474" /><stop
       style="stop-color:#ffffff;stop-opacity:0;"
       offset="1"
       id="stop3476" /></linearGradient><linearGradient
     inkscape:collect="always"
     xlink:href="#linearGradient3489"
     id="linearGradient3495"
     x1="1462.9708"
     y1="237.53893"
     x2="1461.3134"
     y2="239.19644"
     gradientUnits="userSpaceOnUse" /><linearGradient
     inkscape:collect="always"
     id="linearGradient3489"><stop
       style="stop-color:#000000;stop-opacity:1;"
       offset="0"
       id="stop3491" /><stop
       style="stop-color:#000000;stop-opacity:0;"
       offset="1"
       id="stop3493" /></linearGradient><linearGradient
     y2="239.19644"
     x2="1461.3134"
     y1="237.53893"
     x1="1462.9708"
     gradientUnits="userSpaceOnUse"
     id="linearGradient3304"
     xlink:href="#linearGradient3489"
     inkscape:collect="always" /></defs><sodipodi:namedview
   inkscape:window-height="670"
   inkscape:window-width="1022"
   inkscape:pageshadow="2"
   inkscape:pageopacity="0.0"
   guidetolerance="10.0"
   gridtolerance="10.0"
   objecttolerance="10.0"
   borderopacity="1.0"
   bordercolor="#666666"
   pagecolor="#ffffff"
   id="base"
   inkscape:zoom="2.8284271"
   inkscape:cx="63.856972"
   inkscape:cy="71.573747"
   inkscape:window-x="2"
   inkscape:window-y="27"
   inkscape:current-layer="Layer_1"
   showgrid="true"
   showguides="true"
   inkscape:guide-bbox="true"
   inkscape:window-maximized="0"><inkscape:grid
     id="GridFromPre046Settings"
     type="xygrid"
     originx="0px"
     originy="0px"
     spacingx="4px"
     spacingy="4px"
     color="#0000ff"
     empcolor="#0000ff"
     opacity="0.2"
     empopacity="0.4"
     empspacing="2" /></sodipodi:namedview>
<metadata
   id="metadata3">
	<ns:sfw>
		<ns:slices>
			<ns:slice
   y="0"
   x="0"
   height="128"
   width="128"
   sliceID="1316743234" />
		</ns:slices>
		<ns:sliceSourceBounds
   y="0"
   x="0"
   height="128"
   width="128"
   bottomLeftOrigin="true" />
		<ns:optimizationSettings>
			<ns:targetSettings
   targetSettingsID="0"
   fileFormat="PNG24Format">
				<ns:PNG24Format
   transparency="true"
   filtered="false"
   matteColor="#FFFFFF"
   noMatteColor="false"
   interlaced="false">
					</ns:PNG24Format>
			</ns:targetSettings>
			<ns:targetSettings
   targetSettingsID="1696735251"
   fileFormat="PNG24Format">
				<ns:PNG24Format
   transparency="true"
   filtered="false"
   matteColor="#FFFFFF"
   noMatteColor="false"
   interlaced="false">
					</ns:PNG24Format>
			</ns:targetSettings>
		</ns:optimizationSettings>
	</ns:sfw>
<rdf:RDF><cc:Work
     rdf:about=""><dc:format>image/svg+xml</dc:format><dc:type
       rdf:resource="http://purl.org/dc/dcmitype/StillImage" /><dc:title /></cc:Work></rdf:RDF></metadata>

<radialGradient
   id="XMLID_7_"
   cx="102"
   cy="112.3047"
   r="139.5585"
   gradientUnits="userSpaceOnUse">
	<stop
   offset="0"
   style="stop-color:#00537D"
   id="stop16" />
	<stop
   offset="0.0151"
   style="stop-color:#186389"
   id="stop18" />
	<stop
   offset="0.0558"
   style="stop-color:#558CA8"
   id="stop20" />
	<stop
   offset="0.0964"
   style="stop-color:#89AFC3"
   id="stop22" />
	<stop
   offset="0.1357"
   style="stop-color:#B3CCD8"
   id="stop24" />
	<stop
   offset="0.1737"
   style="stop-color:#D4E2E9"
   id="stop26" />
	<stop
   offset="0.2099"
   style="stop-color:#ECF2F5"
   id="stop28" />
	<stop
   offset="0.2435"
   style="stop-color:#FAFCFD"
   id="stop30" />
	<stop
   offset="0.2722"
   style="stop-color:#FFFFFF"
   id="stop32" />
</radialGradient>

<radialGradient
   id="XMLID_8_"
   cx="102"
   cy="112.3047"
   r="139.55859"
   gradientUnits="userSpaceOnUse">
	<stop
   offset="0"
   style="stop-color:#535557"
   id="stop37" />
	
	<stop
   offset="0.11366145"
   style="stop-color:#898A8C"
   id="stop41" />
	
	
	<stop
   offset="0.20296688"
   style="stop-color:#ECECEC"
   id="stop47" />
	<stop
   offset="0.2363"
   style="stop-color:#FAFAFA"
   id="stop49" />
	<stop
   offset="0.2722"
   style="stop-color:#FFFFFF"
   id="stop51" />
	<stop
   offset="0.5313"
   style="stop-color:#FAFAFA"
   id="stop53" />
	<stop
   offset="0.8449"
   style="stop-color:#EBECEC"
   id="stop55" />
	<stop
   offset="1"
   style="stop-color:#E1E2E3"
   id="stop57" />
</radialGradient>

<linearGradient
   id="XMLID_9_"
   gradientUnits="userSpaceOnUse"
   x1="94.3438"
   y1="102.3447"
   x2="86.5356"
   y2="94.5366">
	<stop
   offset="0"
   style="stop-color:#FFFFFF"
   id="stop62" />
	<stop
   offset="1"
   style="stop-color:#555753"
   id="stop64" />
</linearGradient>

<linearGradient
   id="XMLID_10_"
   gradientUnits="userSpaceOnUse"
   x1="95"
   y1="103"
   x2="86.5865"
   y2="94.5865">
	<stop
   offset="0"
   style="stop-color:#FFFFFF"
   id="stop69" />
	<stop
   offset="1"
   style="stop-color:#555753"
   id="stop71" />
</linearGradient>

<linearGradient
   id="XMLID_11_"
   gradientUnits="userSpaceOnUse"
   x1="95"
   y1="103"
   x2="87.293"
   y2="95.293">
	<stop
   offset="0"
   style="stop-color:#FFFFFF"
   id="stop76" />
	<stop
   offset="1"
   style="stop-color:#393B38"
   id="stop78" />
</linearGradient>

<linearGradient
   id="XMLID_12_"
   gradientUnits="userSpaceOnUse"
   x1="96"
   y1="104"
   x2="88.0002"
   y2="96.0002">
	<stop
   offset="0"
   style="stop-color:#888A85"
   id="stop83" />
	<stop
   offset="0.0072"
   style="stop-color:#8C8E89"
   id="stop85" />
	<stop
   offset="0.0673"
   style="stop-color:#ABACA9"
   id="stop87" />
	<stop
   offset="0.1347"
   style="stop-color:#C5C6C4"
   id="stop89" />
	<stop
   offset="0.2115"
   style="stop-color:#DBDBDA"
   id="stop91" />
	<stop
   offset="0.3012"
   style="stop-color:#EBEBEB"
   id="stop93" />
	<stop
   offset="0.4122"
   style="stop-color:#F7F7F6"
   id="stop95" />
	<stop
   offset="0.5679"
   style="stop-color:#FDFDFD"
   id="stop97" />
	<stop
   offset="1"
   style="stop-color:#FFFFFF"
   id="stop99" />
</linearGradient>
<path
   id="path6594"
   d="M 23,9 L 23.040816,121 L 84.172,121 C 84.702,121 85.211,120.789 85.586,120.414 L 118.414,87.586 C 118.789,87.211 119,86.702 119,86.172 L 119,9 L 23,9 z "
   style="opacity:0.5;fill:#000000;fill-opacity:1;filter:url(#filter3241)"
   transform="matrix(1.0416667,0,0,1.0357143,-9.9583333,-3.3215342)"
   sodipodi:nodetypes="cccccccc" /><path
   style="fill:url(#radialGradient2275)"
   d="M 16.000002,8 L 16.000002,120 L 77.172002,120 C 77.702002,120 78.211002,119.789 78.586002,119.414 L 111.414,86.586 C 111.789,86.211 112,85.702 112,85.172 L 112,8 L 16.000002,8 z "
   id="path34"
   sodipodi:nodetypes="cccccccc" /><path
   style="fill:url(#radialGradient2272);fill-opacity:1"
   d="M 18.978725,10 C 18.439449,10 18.000002,10.440836 18.000002,10.981818 L 18.000002,117.01818 C 18.000002,117.56015 18.439449,118 18.978725,118 L 76.891747,118 C 77.149151,118 77.401662,117.89593 77.583704,117.71233 L 109.71323,85.4812 C 109.89626,85.2976 110,85.045273 110,84.787055 L 110,10.981818 C 110,10.440836 109.56153,10 109.02128,10 L 18.978725,10 z "
   id="path59" /><g
   id="g1973"
   transform="translate(2.4e-6,0)"><path
     style="opacity:0.1;fill:url(#linearGradient2291)"
     id="path66"
     d="M 111.414,86.586 C 111.664,86.336 93.035,93 88,93 C 86.346,93 85,94.346 85,96 C 85,101.035 78.336,119.664 78.586,119.414 L 111.414,86.586 z " /><path
     style="opacity:0.1;fill:url(#linearGradient2293)"
     id="path73"
     d="M 111.414,86.586 C 111.789,86.211 97.444,94 88,94 C 86.897,94 86,94.897 86,96 C 86,105.444 78.211,119.789 78.586,119.414 L 111.414,86.586 z " /><path
     style="opacity:0.1;fill:url(#linearGradient2295)"
     id="path80"
     d="M 111.414,86.586 C 111.653,86.347 97.807,95 88,95 C 87.447,95 87,95.447 87,96 C 87,105.807 78.347,119.653 78.586,119.414 L 111.414,86.586 z " /><path
     style="fill:url(#linearGradient2297)"
     id="path101"
     d="M 78.586,119.414 C 78.586,119.414 90.5,109.5 96,104 C 101.5,98.5 111.414,86.586 111.414,86.586 C 111.414,86.586 98.25,96 88,96 C 88,106.25 78.586,119.414 78.586,119.414 z " /></g>

<g
   transform="matrix(1.0015001,0,0,1.0015001,-1429.7134,-143.05121)"
   id="g3161"><path
     style="fill:#ffffff;fill-opacity:0.75688076;fill-rule:nonzero;stroke:none"
     d="m 1478.4151,145.63165 0,-2.79471 0,2.79471 z"
     id="path2276"
     sodipodi:nodetypes="ccc" /><path
     id="path3289"
     d="m 1491.4286,246.9441 c -17.8902,0 -34.0515,1.35839 -45.6563,3.5625 26.7753,3.69636 50.5693,3.27514 71.875,-2.5 -8.0068,-0.67149 -16.869,-1.0625 -26.2187,-1.0625 z m -46.6563,3.78125 c -10.6715,2.12311 -17.25,4.96129 -17.25,8.09375 0,6.55723 28.6267,11.875 63.9063,11.875 35.2795,0 63.9062,-5.31778 63.9062,-11.875 0,-1.0096 -0.6602,-2.00139 -1.9375,-2.9375 -28.8007,4.99039 -58.0562,9.34229 -92.8125,6.25 l -15.8125,-11.40625 z"
     style="opacity:0.54918033;fill:url(#radialGradient3107);fill-opacity:1;fill-rule:nonzero;stroke:none" /><path
     style="fill:#888888;fill-opacity:1;stroke:none"
     d="m 1447.12,222.32233 -14.6666,14.66657 28.9165,28.91647 14.6666,-14.66657 -28.9165,-28.91647 z"
     id="path4106" /><path
     style="fill:#bbbbbb;fill-opacity:1;stroke:none"
     d="m 1516.8151,160.66445 -9.8031,0 30.372,30.64863 0,-10.59895 -20.5689,-20.04968 z"
     id="path4108"
     sodipodi:nodetypes="ccccc" /><path
     sodipodi:nodetypes="ccccc"
     id="rect4127"
     d="m 1507.2747,160.60919 9.6479,0 -6.1747,5.69226 -4.631,-4.43803 1.1578,-1.25423 z"
     style="opacity:0.58333333;fill:#4b4b4b;fill-opacity:1;stroke:none" /><path
     sodipodi:nodetypes="ccccc"
     id="path4119"
     d="m 1516.781,160.60837 -9.7096,0 30.0825,30.45567 0,-10.53222 -20.3729,-19.92345 z"
     style="fill:url(#linearGradient3518);fill-opacity:1;stroke:none" /><path
     sodipodi:nodetypes="ccccc"
     id="path3467"
     d="m 1447.6077,221.85275 -14.5086,14.48879 28.1353,28.21379 14.5086,-14.48879 -28.1353,-28.21379 z"
     style="fill:url(#linearGradient3515);fill-opacity:1;stroke:none" /><path
     id="rect4110"
     d="m 1517.5357,171.16729 -61.1043,61.1043 9.465,9.465 61.031,-61.0456 10.5215,10.53623 0.073,-0.0734 -19.9866,-19.98656 z"
     style="fill:url(#linearGradient3512);fill-opacity:1;stroke:none" /><path
     sodipodi:nodetypes="ccccc"
     id="path3547"
     d="m 1434.8372,237.81187 14.1511,-14.13543 -1.5693,-1.57029 -14.2074,14.27442 1.6256,1.4313 z"
     style="opacity:0.90555576;fill:url(#linearGradient3549);fill-opacity:1;stroke:none" /><path
     sodipodi:nodetypes="ccccc"
     id="path3498"
     d="m 1448.8488,222.26261 -15.1875,15.17188 1.375,0.0156 14.5312,-14.46875 -0.7187,-0.71875 z"
     style="opacity:0.48333333;fill:#ffffff;fill-opacity:1;stroke:none" /><path
     sodipodi:nodetypes="ccccc"
     id="path3537"
     d="m 1507.1886,162.53954 8.1326,-0.38933 1.4499,-1.52203 -9.639,0.15103 0.056,1.76033 z"
     style="opacity:0.82777782;fill:url(#linearGradient3539);fill-opacity:1;stroke:none" /><path
     id="rect4112"
     d="m 1506.9701,160.6017 -61.1043,61.1043 10.5656,10.56559 61.1043,-61.1043 -10.5656,-10.56559 z"
     style="fill:url(#linearGradient3468);fill-opacity:1;stroke:none" /><path
     sodipodi:nodetypes="ccccc"
     id="rect4129"
     d="m 1531.7323,187.09254 4.3416,4.63102 1.2542,-1.15774 0,-9.64793 -5.5958,6.17465 z"
     style="opacity:0.58333333;fill:#ffffff;fill-opacity:1;stroke:none" /><path
     style="opacity:0.82777782;fill:url(#linearGradient3543);fill-opacity:1;stroke:none"
     d="m 1534.9542,190.82892 0.7354,-8.10029 1.6015,-1.83849 -0.1475,9.99521 -2.1894,-0.0564 z"
     id="path3541"
     sodipodi:nodetypes="ccccc" /><path
     style="fill:url(#linearGradient3505);fill-opacity:1;stroke:none"
     d="m 1526.9274,180.69723 -61.1043,61.1043 10.5656,10.56559 61.1043,-61.10431 -10.5656,-10.56558 z"
     id="path4117" /><path
     sodipodi:nodetypes="ccccc"
     style="opacity:0.49444442;fill:url(#radialGradient3533);fill-opacity:1;stroke:none"
     d="m 1506.97,160.65307 -61.1043,61.1043 30.5656,30.81559 61.1043,-61.1043 -30.5656,-30.81559 z"
     id="path3523" /><path
     sodipodi:nodetypes="cccccccc"
     id="path4186"
     d="m 1507.2585,161.0581 -60.5894,61.16914 0.4164,0.43608 60.3249,-60.34619 29.9452,28.9846 0.01,-0.047 -19.9502,-20.07516 -10.1524,-10.1215 z"
     style="opacity:0.24444442;fill:#ffffff;fill-opacity:1;stroke:none" /><path
     id="text2494"
     d="m 1525.1497,200.30824 c -0.2352,0.23538 -0.4738,0.37591 -0.7158,0.42158 -0.2418,0.0444 -0.4438,-0.0141 -0.6061,-0.17565 -0.1633,-0.16248 -0.2219,-0.36407 -0.1759,-0.60489 0.046,-0.24201 0.1897,-0.48339 0.4302,-0.72413 0.2398,-0.23997 0.4807,-0.38361 0.7226,-0.43092 0.2419,-0.0474 0.4442,0.01 0.607,0.17199 0.166,0.16522 0.2256,0.36856 0.1789,0.61014 -0.047,0.24109 -0.1942,0.48503 -0.4409,0.73188 m -0.1054,-0.11181 c 0.1733,-0.17349 0.2697,-0.34511 0.289,-0.51491 0.019,-0.17021 -0.041,-0.32393 -0.1785,-0.46108 -0.1336,-0.13299 -0.2858,-0.18921 -0.4567,-0.16873 -0.17,0.0198 -0.339,0.11374 -0.507,0.28187 -0.1688,0.1689 -0.2626,0.33845 -0.2815,0.50869 -0.019,0.16976 0.038,0.32163 0.1729,0.45555 0.1341,0.13347 0.2865,0.19139 0.4572,0.1738 0.1707,-0.0176 0.3389,-0.10935 0.5046,-0.27519 m 1.0202,-0.8549 0.047,-1.07574 -1.0462,0.0265 0.2841,-0.2843 0.7948,-0.0229 0.041,-0.81394 0.2268,-0.22697 -0.046,1.03585 1.0862,-0.0279 -0.2841,0.2843 -0.8378,0.0258 -0.038,0.85115 -0.2279,0.22813 m 2.0377,-2.0394 -0.4286,-0.42658 -1.1638,-0.0288 0.2749,-0.27513 0.9032,0.021 0.011,-0.93577 0.2233,-0.22354 -0.011,1.19873 0.4315,0.42938 -0.2406,0.24073 m 2.3411,-2.39826 c -0.1698,0.241 -0.3311,0.43792 -0.4838,0.59077 -0.2696,0.26978 -0.523,0.43067 -0.7603,0.48259 -0.2365,0.0512 -0.4414,-0.01 -0.6149,-0.18213 -0.1701,-0.16933 -0.2294,-0.37393 -0.1779,-0.6138 0.051,-0.24032 0.2083,-0.49233 0.4717,-0.756 0.1726,-0.17271 0.3676,-0.33685 0.5849,-0.49252 l 0.1345,0.13392 c -0.2817,0.186 -0.4848,0.34131 -0.6093,0.46588 -0.1833,0.18343 -0.288,0.36345 -0.3142,0.54009 -0.025,0.17592 0.03,0.33199 0.1672,0.46821 0.1354,0.1348 0.2951,0.18551 0.4789,0.15198 0.1834,-0.034 0.3728,-0.14878 0.5683,-0.34443 0.08,-0.0802 0.1583,-0.17548 0.2343,-0.28577 l -0.3343,-0.33274 0.2394,-0.23959 0.4155,0.41354 m 0.4492,-0.39429 -1.0265,-1.02168 0.9472,-0.94805 0.109,0.10842 -0.7067,0.70732 0.3294,0.32786 0.5922,-0.59267 0.1075,0.107 -0.5922,0.59267 0.3718,0.37001 0.756,-0.7566 0.1089,0.10837 -0.9966,0.99735 m 1.2738,-1.27477 -1.0266,-1.02167 0.236,-0.23616 1.6461,-0.065 -0.7928,-0.78903 0.2062,-0.20635 1.0266,1.02168 -0.2348,0.235 -1.6474,0.0662 0.7929,0.78904 -0.2062,0.20634"
     style="font-size:2.57907891px;font-style:normal;font-weight:normal;fill:#f0f8ff;fill-opacity:1;stroke:none;font-family:Lucida Sans" /><path
     style="fill:#00142d;fill-opacity:1;stroke:none"
     d="m 1476.1359,252.57696 59.8006,-59.85627 -0.1082,-0.0252 -59.6716,59.07205 -27.6739,-27.47011 -0.01,0.047 27.6586,28.23253 z"
     id="path3489"
     sodipodi:nodetypes="ccccccc" /><path
     id="text3492"
     d="m 650.17574,1632.3326 0,-8.8929 4.96923,0 0,0.9434 -3.70739,0 0,2.8541 3.10651,0 0,0.9314 -3.10651,0 0,3.2207 3.96576,0 0,0.9433 -5.2276,0 m 6.68172,0 0,-8.8929 2.69191,0 c 0.85324,0 1.50619,0.1883 1.95885,0.5648 0.45666,0.3766 0.68499,0.9234 0.68499,1.6404 0,1.1857 -0.59887,2.027 -1.79661,2.5237 l 2.96832,4.164 -1.55026,0 -2.52967,-3.7614 -1.17772,0 0,3.7614 -1.24981,0 m 1.24981,-4.7048 0.4086,0 c 1.5863,0 2.37945,-0.6229 2.37946,-1.8687 -10e-6,-0.9173 -0.66497,-1.376 -1.9949,-1.376 l -0.79316,0 0,3.2447 m 11.04406,1.3039 -1.5142,-3.8336 -1.52021,3.8336 3.03441,0 m 1.33394,3.4009 -0.96741,-2.4635 -3.76747,0 -0.97943,2.4635 -1.1717,0 3.52713,-8.8929 1.24981,0 3.47305,8.8929 -1.36398,0 m 4.38637,0.2224 c -0.59687,0 -1.35997,-0.1302 -2.28932,-0.3906 l 0,-1.2498 c 1.00145,0.4647 1.82465,0.697 2.46959,0.697 0.49672,0 0.89529,-0.1302 1.19574,-0.3906 0.30443,-0.2604 0.45665,-0.6028 0.45666,-1.0275 -10e-6,-0.3485 -0.10015,-0.6449 -0.30044,-0.8893 -0.19629,-0.2443 -0.56082,-0.5167 -1.09359,-0.8171 l -0.61289,-0.3546 c -0.7571,-0.4326 -1.29188,-0.8392 -1.60433,-1.2197 -0.30845,-0.3846 -0.46267,-0.8312 -0.46267,-1.34 0,-0.685 0.24836,-1.2478 0.74508,-1.6884 0.49672,-0.4447 1.12964,-0.667 1.89876,-0.667 0.68499,0 1.40804,0.1142 2.16915,0.3425 l 0,1.1537 c -0.93736,-0.3686 -1.63638,-0.5528 -2.09705,-0.5528 -0.43663,0 -0.79716,0.1161 -1.08157,0.3485 -0.28441,0.2323 -0.42662,0.5247 -0.42662,0.8772 0,0.2965 0.10415,0.5589 0.31246,0.7872 0.2083,0.2283 0.58885,0.5007 1.14166,0.8172 l 0.63692,0.3605 c 0.76912,0.4366 1.3059,0.8492 1.61034,1.2378 0.30444,0.3886 0.45666,0.8552 0.45667,1.4 -10e-6,0.7732 -0.28643,1.3941 -0.85925,1.8627 -0.56883,0.4687 -1.32393,0.7031 -2.2653,0.7031 m 4.89112,-0.2224 0,-8.8929 4.96922,0 0,0.9434 -3.70739,0 0,2.8541 3.10652,0 0,0.9314 -3.10652,0 0,3.2207 3.96577,0 0,0.9433 -5.2276,0 m 6.68171,0 0,-8.8929 2.69191,0 c 0.85324,0 1.50618,0.1883 1.95885,0.5648 0.45666,0.3766 0.68499,0.9234 0.68499,1.6404 0,1.1857 -0.59887,2.027 -1.79661,2.5237 l 2.96832,4.164 -1.55026,0 -2.52967,-3.7614 -1.17772,0 0,3.7614 -1.24981,0 m 1.24981,-4.7048 0.4086,0 c 1.5863,0 2.37945,-0.6229 2.37946,-1.8687 -10e-6,-0.9173 -0.66497,-1.376 -1.9949,-1.376 l -0.79316,0 0,3.2447"
     style="font-size:12.30588913px;font-style:normal;font-weight:normal;fill:#9c0f0f;fill-opacity:1;stroke:none;font-family:Lucida Sans"
     transform="matrix(0.9588222,-0.9588222,0.5214731,0.5214731,0,0)" /><path
     style="fill:url(#linearGradient3474);fill-opacity:1;stroke:none"
     d="m 1473.8667,250.25382 -14.1511,14.13543 1.5693,1.57029 14.2074,-14.27442 -1.6256,-1.4313 z"
     id="path3519"
     sodipodi:nodetypes="ccccc" /><path
     sodipodi:nodetypes="ccccc"
     id="path3529"
     d="m 1462.4136,264.47531 -28.9181,-28.66172 -1.1683,1.24937 28.9629,28.77837 1.1235,-1.36602 z"
     style="opacity:0.86666667;fill:url(#linearGradient3531);fill-opacity:1;stroke:none" /><path
     style="opacity:0.66111109;fill:url(#linearGradient3535);fill-opacity:1;stroke:none"
     d="m 1515.165,162.34185 20.6124,20.10605 1.5805,-1.66161 -20.6572,-20.2227 -1.5357,1.77826 z"
     id="path3533"
     sodipodi:nodetypes="ccccc" /><path
     sodipodi:nodetypes="ccccccc"
     id="rect2498"
     d="m 1180.4717,-953.33618 40.748,0.43584 1.2259,1.0673 c 0,0 -0.01,1.1576 0.027,1.23024 l -43.2359,0.0182 -0.1669,-1.51455 1.4018,-1.23699 z"
     style="opacity:0.85;fill:url(#linearGradient3478);fill-opacity:1;stroke:none"
     transform="matrix(0.7071068,0.7071068,-0.7071068,0.7071068,0,0)" /><path
     sodipodi:nodetypes="ccccc"
     id="path3480"
     d="m 1446.8969,222.67353 -1.0312,1.03125 28.978,28.80387 1,-1 -28.9468,-28.83512 z"
     style="fill:url(#linearGradient3304);fill-opacity:1;stroke:none" /></g></svg>